<?xml version="1.0" encoding="UTF-8" standalone="no"?>
<svg width="416px" height="377px" viewBox="0 0 416 377" version="1.1" xmlns="http://www.w3.org/2000/svg" xmlns:xlink="http://www.w3.org/1999/xlink">
    <!-- Generator: Sketch 3.6.1 (26313) - http://www.bohemiancoding.com/sketch -->
    <title>Iteration</title>
    <desc>Created with Sketch.</desc>
    <defs>
        <circle id="path-1" cx="92" cy="92" r="92"></circle>
        <circle id="path-3" cx="92" cy="92" r="92"></circle>
        <circle id="path-5" cx="92" cy="92" r="92"></circle>
    </defs>
    <g id="Page-1" stroke="none" stroke-width="1" fill="none" fill-rule="evenodd">
        <g id="Artboard-1-Copy-2" transform="translate(-843.000000, -3908.000000)">
            <g id="Iteration" transform="translate(844.000000, 3910.000000)">
                <g id="mtns" transform="translate(110.000000, 0.000000)">
                    <mask id="mask-2" fill="white">
                        <use xlink:href="#path-1"></use>
                    </mask>
                    <use id="Oval-58" stroke="#EBCA7D" stroke-width="2" xlink:href="#path-1"></use>
                    <circle id="Oval-60" stroke="#E18769" stroke-width="2" mask="url(#mask-2)" cx="31.5" cy="29.5" r="36.5"></circle>
                    <g id="Grey-mtn" opacity="0.23542444" mask="url(#mask-2)" fill="#FFFFFF">
                        <g transform="translate(-58.000000, 93.000000)">
                            <path d="M89.6249413,1.48401684 L178.124941,161.484017 L179,160 L2,160 L2.87505869,161.484017 L91.3750587,1.48401684 L89.6249413,1.48401684 L89.6249413,1.48401684 Z M91.3750587,0.515983165 C90.9945211,-0.171994388 90.0054789,-0.171994388 89.6249413,0.515983165 L1.12494131,160.515983 C0.75628404,161.182482 1.23833791,162 2,162 L179,162 C179.761662,162 180.243716,161.182482 179.875059,160.515983 L91.3750587,0.515983165 L91.3750587,0.515983165 Z" id="Triangle-2-Copy"></path>
                            <path d="M71.2836335,37.5714424 L79.7996427,47.7585001 C80.1869715,48.2218322 80.8934719,48.2387457 81.3025284,47.7944789 L90.3178426,38.0031552 L88.7868447,37.9319652 L97.0091451,48.720353 C97.4033558,49.2375924 98.1786209,49.2468684 98.5850944,48.7392092 L109.477053,35.1358544 C109.822242,34.7047359 109.752582,34.0754145 109.321464,33.7302257 C108.890345,33.385037 108.261024,33.4546968 107.915835,33.8858153 L97.0238762,47.4891701 L98.5998254,47.5080262 L90.377525,36.7196384 C90.0004311,36.2248579 89.2679081,36.1907962 88.846527,36.6484484 L79.8312128,46.4397722 L81.3340985,46.475751 L72.8180893,36.2886933 C72.4638679,35.864965 71.833215,35.8086185 71.4094868,36.1628399 C70.9857585,36.5170613 70.9294121,37.1477142 71.2836335,37.5714424 L71.2836335,37.5714424 Z" id="Path-320-Copy"></path>
                        </g>
                    </g>
                    <g id="big-grey-mtn" opacity="0.23542444" mask="url(#mask-2)" fill="#FFFFFF">
                        <g transform="translate(62.000000, 54.000000)">
                            <path d="M89.6249413,1.48401684 L178.124941,161.484017 L179,160 L2,160 L2.87505869,161.484017 L91.3750587,1.48401684 L89.6249413,1.48401684 L89.6249413,1.48401684 Z M91.3750587,0.515983165 C90.9945211,-0.171994388 90.0054789,-0.171994388 89.6249413,0.515983165 L1.12494131,160.515983 C0.75628404,161.182482 1.23833791,162 2,162 L179,162 C179.761662,162 180.243716,161.182482 179.875059,160.515983 L91.3750587,0.515983165 L91.3750587,0.515983165 Z" id="Triangle-2-Copy"></path>
                            <path d="M71.2836335,37.5714424 L79.7996427,47.7585001 C80.1869715,48.2218322 80.8934719,48.2387457 81.3025284,47.7944789 L90.3178426,38.0031552 L88.7868447,37.9319652 L97.0091451,48.720353 C97.4033558,49.2375924 98.1786209,49.2468684 98.5850944,48.7392092 L109.477053,35.1358544 C109.822242,34.7047359 109.752582,34.0754145 109.321464,33.7302257 C108.890345,33.385037 108.261024,33.4546968 107.915835,33.8858153 L97.0238762,47.4891701 L98.5998254,47.5080262 L90.377525,36.7196384 C90.0004311,36.2248579 89.2679081,36.1907962 88.846527,36.6484484 L79.8312128,46.4397722 L81.3340985,46.475751 L72.8180893,36.2886933 C72.4638679,35.864965 71.833215,35.8086185 71.4094868,36.1628399 C70.9857585,36.5170613 70.9294121,37.1477142 71.2836335,37.5714424 L71.2836335,37.5714424 Z" id="Path-320-Copy"></path>
                        </g>
                    </g>
                    <g id="mtn" mask="url(#mask-2)">
                        <g transform="translate(4.000000, 40.000000)">
                            <polygon id="Triangle-2" stroke="#FFFFFF" stroke-width="2" stroke-linecap="round" stroke-linejoin="round" fill="#222222" fill-rule="evenodd" points="88.5 24 177 184 0 184 "></polygon>
                            <path d="M69.2836335,60.5714424 L77.7996427,70.7585001 C78.1869715,71.2218322 78.8934719,71.2387457 79.3025284,70.7944789 L88.3178426,61.0031552 L86.7868447,60.9319652 L95.0091451,71.720353 C95.4033558,72.2375924 96.1786209,72.2468684 96.5850944,71.7392092 L107.477053,58.1358544 C107.822242,57.7047359 107.752582,57.0754145 107.321464,56.7302257 C106.890345,56.385037 106.261024,56.4546968 105.915835,56.8858153 L95.0238762,70.4891701 L96.5998254,70.5080262 L88.377525,59.7196384 C88.0004311,59.2248579 87.2679081,59.1907962 86.846527,59.6484484 L77.8312128,69.4397722 L79.3340985,69.475751 L70.8180893,59.2886933 C70.4638679,58.864965 69.833215,58.8086185 69.4094868,59.1628399 C68.9857585,59.5170613 68.9294121,60.1477142 69.2836335,60.5714424 L69.2836335,60.5714424 Z" id="Path-320" stroke="none" fill="#FFFFFF" fill-rule="evenodd"></path>
                            <g id="flag" stroke="none" stroke-width="1" fill="none" fill-rule="evenodd" transform="translate(88.000000, 0.000000)">
                                <path d="M1,24.5 L1,1.41320723 L1,0.913207233 L0,0.913207233 L0,1.41320723 L0,24.5 L0,25 L1,25 L1,24.5 L1,24.5 Z" id="Line" fill="#E18769"></path>
                                <path d="M0.500820737,1.58290901 L16.0280458,1.58290901 L15.6260293,0.785616591 L11.9941477,5.69686236 L11.7682331,6.00235751 L12.0020507,6.30184712 L15.3945219,10.647157 L15.7886354,9.83946467 L0.672644604,9.83946467 L0.672644604,10.8394647 L15.7886354,10.8394647 L16.8133306,10.8394647 L16.1827489,10.0317723 L12.7902777,5.68646244 L12.7981806,6.29144719 L16.4300622,1.38020142 L17.0196624,0.582909006 L16.0280458,0.582909006 L0.500820737,0.582909006 L0.500820737,1.58290901 L0.500820737,1.58290901 Z" id="Path-323" fill="#E977A6"></path>
                            </g>
                            <g id="trees" stroke="none" stroke-width="1" fill="none" fill-rule="evenodd" transform="translate(62.000000, 74.000000)">
                                <path d="M34,23.1538462 L35.2,23.1538462 L32,17 L28.8,23.1538462 L30,23.1538462 L28,27 L36,27 L34,23.1538462 Z" id="Combined-Shape-Copy" stroke="#9AEFDD"></path>
                                <path d="M11,6.15384615 L12.2,6.15384615 L9,0 L5.8,6.15384615 L7,6.15384615 L5,10 L13,10 L11,6.15384615 Z" id="Combined-Shape-Copy-2" stroke="#9AEFDD" stroke-linecap="round"></path>
                                <path d="M6,42.1538462 L7.2,42.1538462 L4,36 L0.8,42.1538462 L2,42.1538462 L0,46 L8,46 L6,42.1538462 Z" id="Combined-Shape-Copy-3" stroke="#9AEFDD"></path>
                                <path d="M52,51.1538462 L53.2,51.1538462 L50,45 L46.8,51.1538462 L48,51.1538462 L46,55 L54,55 L52,51.1538462 Z" id="Combined-Shape-Copy-4" stroke="#9AEFDD"></path>
                            </g>
                            <path d="M78.5,53.5 L85.5,40.5" id="Line" stroke="#9AEFDD" stroke-width="1" stroke-linecap="round" fill="none"></path>
                            <path d="M104.059503,70.7365633 L133.059503,124.736563 L133.296066,125.177061 L134.177061,124.703934 L133.940497,124.263437 L104.940497,70.2634367 L104.703934,69.8229395 L103.822939,70.2960661 L104.059503,70.7365633 L104.059503,70.7365633 Z" id="Line" stroke="none" fill="#C08FED" fill-rule="evenodd"></path>
                        </g>
                    </g>
                </g>
                <g id="mtns-copy-2" transform="translate(0.000000, 190.000000)">
                    <mask id="mask-4" fill="white">
                        <use xlink:href="#path-3"></use>
                    </mask>
                    <use id="Oval-58" stroke="#EBCA7D" stroke-width="2" xlink:href="#path-3"></use>
                    <g id="Graph" mask="url(#mask-4)">
                        <g transform="translate(41.000000, 43.000000)">
                            <path d="M8,1.5 L8,99.5051041 C8,100.333531 8.67157288,101.005104 9.5,101.005104 C10.3284271,101.005104 11,100.333531 11,99.5051041 L11,1.5 C11,0.671572875 10.3284271,0 9.5,0 C8.67157288,0 8,0.671572875 8,1.5 L8,1.5 Z" id="Line" fill="#FFFFFF"></path>
                            <path d="M20,66.0000191 L20,66.0000191 L20,89.9999809 C20,90.5491173 20.4513185,91 21.0057983,91 L25.9942017,91 C26.5488524,91 27,90.5500377 27,89.9999809 L27,66.0000191 C27,65.4508827 26.5486815,65 25.9942017,65 L21.0057983,65 C20.4511476,65 20,65.4499623 20,66.0000191 L20,66.0000191 Z M18,66.0000191 C18,64.3431543 19.3488159,63 21.0057983,63 L25.9942017,63 C27.6542582,63 29,64.3473186 29,66.0000191 L29,89.9999809 C29,91.6568457 27.6511841,93 25.9942017,93 L21.0057983,93 C19.3457418,93 18,91.6526814 18,89.9999809 L18,66.0000191 L18,66.0000191 Z" id="Rectangle-45" fill="#E977A6"></path>
                            <path d="M40,44.0014819 L40,44.0014819 L40,89.9985181 C40,90.5543694 40.4469043,91 41.0057983,91 L45.9942017,91 C46.5486347,91 47,90.5496011 47,89.9985181 L47,44.0014819 C47,43.4456306 46.5530957,43 45.9942017,43 L41.0057983,43 C40.4513653,43 40,43.4503989 40,44.0014819 L40,44.0014819 Z M38,44.0014819 C38,42.3438092 39.3488159,41 41.0057983,41 L45.9942017,41 C47.6542582,41 49,42.3376562 49,44.0014819 L49,89.9985181 C49,91.6561908 47.6511841,93 45.9942017,93 L41.0057983,93 C39.3457418,93 38,91.6623438 38,89.9985181 L38,44.0014819 L38,44.0014819 Z" id="Rectangle-45-Copy" fill="#C08FED"></path>
                            <path d="M60,50.0004442 L60,50.0004442 L60,89.9995558 C60,90.5466339 60.4532948,91 61.0057983,91 L65.9942017,91 C66.5487892,91 67,90.5499109 67,89.9995558 L67,50.0004442 C67,49.4533661 66.5467052,49 65.9942017,49 L61.0057983,49 C60.4512108,49 60,49.4500891 60,50.0004442 L60,50.0004442 Z M58,50.0004442 C58,48.3433446 59.3488159,47 61.0057983,47 L65.9942017,47 C67.6542582,47 69,48.3517805 69,50.0004442 L69,89.9995558 C69,91.6566554 67.6511841,93 65.9942017,93 L61.0057983,93 C59.3457418,93 58,91.6482195 58,89.9995558 L58,50.0004442 L58,50.0004442 Z" id="Rectangle-45-Copy-2" fill="#E18769"></path>
                            <path d="M82,27.0092117 L82,27.0092117 L82,89.9907883 C82,90.5486172 82.4508612,91 83.0057983,91 L87.9942017,91 C88.5474843,91 89,90.5472903 89,89.9907883 L89,27.0092117 C89,26.4513828 88.5491388,26 87.9942017,26 L83.0057983,26 C82.4525157,26 82,26.4527097 82,27.0092117 L82,27.0092117 Z M80,27.0092117 C80,25.3472699 81.3488159,24 83.0057983,24 L87.9942017,24 C89.6542582,24 91,25.3473626 91,27.0092117 L91,89.9907883 C91,91.6527301 89.6511841,93 87.9942017,93 L83.0057983,93 C81.3457418,93 80,91.6526374 80,89.9907883 L80,27.0092117 L80,27.0092117 Z" id="Rectangle-45-Copy-3" fill="#9AEFDD"></path>
                            <path d="M100,90.5 L1.99489594,90.5 C1.16646881,90.5 0.494895935,91.1715729 0.494895935,92 C0.494895935,92.8284271 1.16646881,93.5 1.99489594,93.5 L100,93.5 C100.828427,93.5 101.5,92.8284271 101.5,92 C101.5,91.1715729 100.828427,90.5 100,90.5 L100,90.5 Z" id="Line-Copy-39" fill="#FFFFFF"></path>
                            <path d="M19.3681814,58.3328102 L44.1457098,25.2300055 L42.8656596,25.5083286 L62.2690856,36.1098913 C62.6863723,36.3378867 63.2064993,36.2405037 63.5130376,35.876987 L86.8041476,8.25660006 C87.1601786,7.83439114 87.1065308,7.20350304 86.6843219,6.84747203 C86.262113,6.49144102 85.6312249,6.54508881 85.2751939,6.96729772 L61.9840838,34.5876847 L63.2280358,34.3547804 L43.8246098,23.7532177 C43.3880901,23.5147138 42.8426339,23.6333131 42.5445596,24.0315407 L17.7670312,57.1343454 C17.4360842,57.5764908 17.5262285,58.203206 17.9683739,58.5341529 C18.4105193,58.8650998 19.0372345,58.7749556 19.3681814,58.3328102 L19.3681814,58.3328102 Z" id="Path-388" fill="#EBCA7D"></path>
                        </g>
                    </g>
                </g>
                <g id="Group-18" transform="translate(230.000000, 190.000000)">
                    <g id="mtns-copy">
                        <mask id="mask-6" fill="white">
                            <use xlink:href="#path-5"></use>
                        </mask>
                        <use id="Oval-58" stroke="#EBCA7D" stroke-width="2" xlink:href="#path-5"></use>
                    </g>
                    <g id="Group-16" transform="translate(51.000000, 66.000000)">
                        <g id="Group-5">
                            <path d="M2.42272135,7 L77.7098551,7 C78.8144246,7 79.7098551,6.1045695 79.7098551,5 C79.7098551,3.8954305 78.8144246,3 77.7098551,3 L2.42272135,3 C1.31815185,3 0.422721354,3.8954305 0.422721354,5 C0.422721354,6.1045695 1.31815185,7 2.42272135,7 L2.42272135,7 Z" id="Line" fill="#FFFFFF"></path>
                            <path d="M2.5,7 L46.5,7 C47.6045695,7 48.5,6.1045695 48.5,5 C48.5,3.8954305 47.6045695,3 46.5,3 L2.5,3 C1.3954305,3 0.5,3.8954305 0.5,5 C0.5,6.1045695 1.3954305,7 2.5,7 L2.5,7 Z" id="Line-Copy-37" fill="#9AEFDD"></path>
                            <circle id="Oval-63" stroke="#E977A6" stroke-width="2" fill="#2C2C2C" cx="47.5" cy="4.5" r="4.5"></circle>
                        </g>
                        <g id="Group-5-Copy" transform="translate(0.000000, 25.000000)">
                            <path d="M2.42272135,7 L77.7098551,7 C78.8144246,7 79.7098551,6.1045695 79.7098551,5 C79.7098551,3.8954305 78.8144246,3 77.7098551,3 L2.42272135,3 C1.31815185,3 0.422721354,3.8954305 0.422721354,5 C0.422721354,6.1045695 1.31815185,7 2.42272135,7 L2.42272135,7 Z" id="Line" fill="#FFFFFF"></path>
                            <path d="M2.5,7 L31.5,7 C32.6045695,7 33.5,6.1045695 33.5,5 C33.5,3.8954305 32.6045695,3 31.5,3 L2.5,3 C1.3954305,3 0.5,3.8954305 0.5,5 C0.5,6.1045695 1.3954305,7 2.5,7 L2.5,7 Z" id="Line-Copy-37" fill="#E18769"></path>
                            <circle id="Oval-63" stroke="#EBCA7D" stroke-width="2" fill="#2C2C2C" cx="32.5" cy="4.5" r="4.5"></circle>
                        </g>
                        <g id="Group-5-Copy-2" transform="translate(0.000000, 51.000000)">
                            <path d="M2.42272135,7 L77.7098551,7 C78.8144246,7 79.7098551,6.1045695 79.7098551,5 C79.7098551,3.8954305 78.8144246,3 77.7098551,3 L2.42272135,3 C1.31815185,3 0.422721354,3.8954305 0.422721354,5 C0.422721354,6.1045695 1.31815185,7 2.42272135,7 L2.42272135,7 Z" id="Line" fill="#FFFFFF"></path>
                            <path d="M2.5,7 L70.5,7 C71.6045695,7 72.5,6.1045695 72.5,5 C72.5,3.8954305 71.6045695,3 70.5,3 L2.5,3 C1.3954305,3 0.5,3.8954305 0.5,5 C0.5,6.1045695 1.3954305,7 2.5,7 L2.5,7 Z" id="Line-Copy-37" fill="#C08FED"></path>
                            <circle id="Oval-63" stroke="#9AEFDD" stroke-width="2" fill="#2C2C2C" cx="69.5" cy="4.5" r="4.5"></circle>
                        </g>
                    </g>
                </g>
            </g>
        </g>
    </g>
</svg>