<?xml version="1.0" encoding="UTF-8" standalone="no"?>
<svg width="464px" height="313px" viewBox="0 0 464 313" version="1.1" xmlns="http://www.w3.org/2000/svg" xmlns:xlink="http://www.w3.org/1999/xlink">
    <!-- Generator: Sketch 3.6.1 (26313) - http://www.bohemiancoding.com/sketch -->
    <title>Screens</title>
    <desc>Created with Sketch.</desc>
    <defs></defs>
    <g id="Page-1" stroke="none" stroke-width="1" fill="none" fill-rule="evenodd">
        <g id="Artboard-1-Copy-2" transform="translate(-848.000000, -2385.000000)">
            <g id="IxD" transform="translate(-23.000000, 2355.000000)">
                <g id="Screens" transform="translate(871.000000, 31.000000)">
                    <g id="Screen-1">
                        <path d="M201.635992,35.56231 L52.6353821,35.56231" id="Line" stroke="#FFFFFF" stroke-linecap="square"></path>
                        <path d="M201.635992,70.6504559 L52.6353821,70.6504559" id="Line-Copy-19" stroke="#FFFFFF" stroke-linecap="square"></path>
                        <path d="M201.635992,105.738602 L52.6353821,105.738602" id="Line-Copy-20" stroke="#FFFFFF" stroke-linecap="square"></path>
                        <path d="M201.635992,140.826748 L52.6353821,140.826748" id="Line-Copy-21" stroke="#FFFFFF" stroke-linecap="square"></path>
                        <path d="M201.635992,175.914894 L52.6353821,175.914894" id="Line-Copy-22" stroke="#FFFFFF" stroke-linecap="square"></path>
                        <path d="M201.635992,212.899696 L52.6353821,212.899696" id="Line-Copy-23" stroke="#FFFFFF" stroke-linecap="square"></path>
                        <rect id="Rectangle-19" stroke="#EBCA7D" stroke-width="2" x="0" y="0" width="202.110429" height="226.650456" rx="8"></rect>
                        <g id="Features" transform="translate(63.574642, 43.623100)">
                            <g id="Feature">
                                <ellipse id="Oval-31" stroke="#E18769" cx="8.5398773" cy="8.53495441" rx="8.5398773" ry="8.53495441"></ellipse>
                                <path d="M37.9550102,6.63829787 C41.44782,6.63829787 41.44782,10.4316109 44.939681,10.4316109 C48.4296442,10.4316109 48.4296442,6.63829787 51.9196074,6.63829787 C55.4114683,6.63829787 55.4114683,10.4316109 58.9033292,10.4316109 C62.3951902,10.4316109 62.3951902,6.63829787 65.8861022,6.63829787 C69.3779632,6.63829787 69.3779632,10.4316109 72.8698241,10.4316109 C76.3626339,10.4316109 76.3626339,6.63829787 79.8544949,6.63829787 C83.3482536,6.63829787 83.3482536,10.4316109 86.8420123,10.4316109 C90.3348221,10.4316109 90.3348221,6.63829787 93.8276319,6.63829787 C97.3232883,6.63829787 97.3232883,10.4316109 100.817996,10.4316109 C104.312703,10.4316109 104.312703,6.63829787 107.80836,6.63829787" id="Page-1-Copy-5" stroke="#9AEFDD" stroke-linecap="round" stroke-linejoin="round"></path>
                            </g>
                            <g id="Feature-2" transform="translate(0.000000, 35.088146)">
                                <path d="M37.9550102,6.63829787 C41.44782,6.63829787 41.44782,10.4316109 44.939681,10.4316109 C48.4296442,10.4316109 48.4296442,6.63829787 51.9196074,6.63829787 C55.4114683,6.63829787 55.4114683,10.4316109 58.9033292,10.4316109 C62.3951902,10.4316109 62.3951902,6.63829787 65.8861022,6.63829787 C69.3779632,6.63829787 69.3779632,10.4316109 72.8698241,10.4316109 C76.3626339,10.4316109 76.3626339,6.63829787 79.8544949,6.63829787 C83.3482536,6.63829787 83.3482536,10.4316109 86.8420123,10.4316109 C90.3348221,10.4316109 90.3348221,6.63829787 93.8276319,6.63829787 C97.3232883,6.63829787 97.3232883,10.4316109 100.817996,10.4316109 C104.312703,10.4316109 104.312703,6.63829787 107.80836,6.63829787" id="Page-1-Copy-6" stroke="#9AEFDD" stroke-linecap="round" stroke-linejoin="round"></path>
                                <ellipse id="Oval-31-Copy" stroke="#E18769" cx="8.5398773" cy="8.53495441" rx="8.5398773" ry="8.53495441"></ellipse>
                            </g>
                            <g id="Feature-3" transform="translate(0.000000, 70.176292)">
                                <path d="M37.9550102,6.63829787 C41.44782,6.63829787 41.44782,10.4316109 44.939681,10.4316109 C48.4296442,10.4316109 48.4296442,6.63829787 51.9196074,6.63829787 C55.4114683,6.63829787 55.4114683,10.4316109 58.9033292,10.4316109 C62.3951902,10.4316109 62.3951902,6.63829787 65.8861022,6.63829787 C69.3779632,6.63829787 69.3779632,10.4316109 72.8698241,10.4316109 C76.3626339,10.4316109 76.3626339,6.63829787 79.8544949,6.63829787 C83.3482536,6.63829787 83.3482536,10.4316109 86.8420123,10.4316109 C90.3348221,10.4316109 90.3348221,6.63829787 93.8276319,6.63829787 C97.3232883,6.63829787 97.3232883,10.4316109 100.817996,10.4316109 C104.312703,10.4316109 104.312703,6.63829787 107.80836,6.63829787" id="Page-1-Copy-10" stroke="#9AEFDD" stroke-linecap="round" stroke-linejoin="round"></path>
                                <ellipse id="Oval-31-Copy-2" stroke="#E18769" cx="8.5398773" cy="8.53495441" rx="8.5398773" ry="8.53495441"></ellipse>
                            </g>
                            <g id="Feature-4" transform="translate(0.000000, 105.264438)">
                                <path d="M37.9550102,6.63829787 C41.44782,6.63829787 41.44782,10.4316109 44.939681,10.4316109 C48.4296442,10.4316109 48.4296442,6.63829787 51.9196074,6.63829787 C55.4114683,6.63829787 55.4114683,10.4316109 58.9033292,10.4316109 C62.3951902,10.4316109 62.3951902,6.63829787 65.8861022,6.63829787 C69.3779632,6.63829787 69.3779632,10.4316109 72.8698241,10.4316109 C76.3626339,10.4316109 76.3626339,6.63829787 79.8544949,6.63829787 C83.3482536,6.63829787 83.3482536,10.4316109 86.8420123,10.4316109 C90.3348221,10.4316109 90.3348221,6.63829787 93.8276319,6.63829787 C97.3232883,6.63829787 97.3232883,10.4316109 100.817996,10.4316109 C104.312703,10.4316109 104.312703,6.63829787 107.80836,6.63829787" id="Page-1-Copy-11" stroke="#9AEFDD" stroke-linecap="round" stroke-linejoin="round"></path>
                                <ellipse id="Oval-31-Copy-3" stroke="#E18769" cx="8.5398773" cy="8.53495441" rx="8.5398773" ry="8.53495441"></ellipse>
                            </g>
                            <g id="Feature-5" transform="translate(0.000000, 140.352584)">
                                <path d="M37.9550102,7.58662614 C41.44782,7.58662614 41.44782,11.3799392 44.939681,11.3799392 C48.4296442,11.3799392 48.4296442,7.58662614 51.9196074,7.58662614 C55.4114683,7.58662614 55.4114683,11.3799392 58.9033292,11.3799392 C62.3951902,11.3799392 62.3951902,7.58662614 65.8861022,7.58662614 C69.3779632,7.58662614 69.3779632,11.3799392 72.8698241,11.3799392 C76.3626339,11.3799392 76.3626339,7.58662614 79.8544949,7.58662614 C83.3482536,7.58662614 83.3482536,11.3799392 86.8420123,11.3799392 C90.3348221,11.3799392 90.3348221,7.58662614 93.8276319,7.58662614 C97.3232883,7.58662614 97.3232883,11.3799392 100.817996,11.3799392 C104.312703,11.3799392 104.312703,7.58662614 107.80836,7.58662614" id="Page-1-Copy-12" stroke="#9AEFDD" stroke-linecap="round" stroke-linejoin="round"></path>
                                <ellipse id="Oval-31-Copy-4" stroke="#E18769" cx="8.5398773" cy="8.53495441" rx="8.5398773" ry="8.53495441"></ellipse>
                            </g>
                        </g>
                        <g id="Sidebar" transform="translate(1.897751, 0.000000)">
                            <path d="M50.7648262,208.632219 L0,208.632219" id="Line" stroke="#C08FED" stroke-width="2" stroke-linecap="square"></path>
                            <path d="M51.2392638,224.753799 L51.2392638,0.893974413" id="Line" stroke="#C08FED" stroke-width="2" stroke-linecap="square"></path>
                            <g id="Sidebar-links" transform="translate(6.642127, 44.571429)" stroke="#C08FED" stroke-width="2" stroke-linecap="round" stroke-linejoin="round">
                                <path d="M0.474437628,0.948328267 L28.4662577,0.948328267" id="Line-Copy-25"></path>
                                <path d="M0.474437628,11.3799392 L22.7730061,11.3799392" id="Line-Copy-26"></path>
                                <path d="M0.474437628,21.8115502 L33.2106339,21.8115502" id="Line-Copy-27"></path>
                                <path d="M0.406660824,32.2431611 L28.4662577,32.2431611" id="Line-Copy-28"></path>
                                <path d="M0.474437628,42.674772 L33.2106339,42.674772" id="Line-Copy-29"></path>
                                <path d="M0.406660824,53.106383 L28.4662577,53.106383" id="Line-Copy-30"></path>
                            </g>
                            <g id="Sidebar-header" transform="translate(5.693252, 11.379939)">
                                <ellipse id="Oval-36" stroke="#FFFFFF" cx="5.69325153" cy="5.6899696" rx="5.69325153" ry="5.6899696"></ellipse>
                                <path d="M17.5541922,3.79331307 L33.2106339,3.79331307" id="Line" stroke="#EBCA7D" stroke-width="2" stroke-linecap="round" stroke-linejoin="round"></path>
                                <path d="M17.5541922,7.58662614 L27.5173824,7.58662614" id="Line-Copy-24" stroke="#EBCA7D" stroke-width="2" stroke-linecap="round" stroke-linejoin="round"></path>
                            </g>
                        </g>
                        <path d="M69.2678937,17.0699088 C72.7607035,17.0699088 72.7607035,20.8632219 76.2525644,20.8632219 C79.7425276,20.8632219 79.7425276,17.0699088 83.2324908,17.0699088 C86.7243517,17.0699088 86.7243517,20.8632219 90.2162127,20.8632219 C93.7080736,20.8632219 93.7080736,17.0699088 97.1989857,17.0699088 C100.690847,17.0699088 100.690847,20.8632219 104.182708,20.8632219 C107.675517,20.8632219 107.675517,17.0699088 111.167378,17.0699088 C114.661137,17.0699088 114.661137,20.8632219 118.154896,20.8632219 C121.647706,20.8632219 121.647706,17.0699088 125.140515,17.0699088 C128.636172,17.0699088 128.636172,20.8632219 132.130879,20.8632219 C135.625587,20.8632219 135.625587,17.0699088 139.121243,17.0699088" id="Header-scribble" stroke="#FFFFFF" stroke-width="4" stroke-linecap="round" stroke-linejoin="round"></path>
                    </g>
                    <g id="Screen-1-Copy" transform="translate(261.889571, 85.349544)">
                        <rect id="Rectangle-19" stroke="#EBCA7D" stroke-width="2" x="0" y="0" width="202.110429" height="226.650456" rx="8"></rect>
                        <g id="Sidebar" transform="translate(1.897751, 0.000000)">
                            <path d="M50.7648262,208.632219 L0,208.632219" id="Line" stroke="#C08FED" stroke-width="2" stroke-linecap="square"></path>
                            <path d="M51.2392638,224.753799 L51.2392638,0.893974413" id="Line" stroke="#C08FED" stroke-width="2" stroke-linecap="square"></path>
                            <path d="M107.274029,185.398176 L107.274029,185.398176 C107.274029,188.245877 109.588779,190.56231 112.438465,190.56231 L139.013478,190.56231 C141.861465,190.56231 144.177914,188.247731 144.177914,185.398176 C144.177914,182.550476 141.863164,180.234043 139.013478,180.234043 L112.438465,180.234043 C109.590478,180.234043 107.274029,182.548622 107.274029,185.398176 L107.274029,185.398176 Z M106.274029,185.398176 C106.274029,181.993819 109.040712,179.234043 112.438465,179.234043 L139.013478,179.234043 C142.418002,179.234043 145.177914,182.000746 145.177914,185.398176 C145.177914,188.802533 142.411231,191.56231 139.013478,191.56231 L112.438465,191.56231 C109.033941,191.56231 106.274029,188.795606 106.274029,185.398176 L106.274029,185.398176 Z" id="Rectangle-17" fill="#9AEFDD"></path>
                            <g id="Sidebar-links" transform="translate(6.642127, 44.571429)" stroke="#C08FED" stroke-width="2" stroke-linecap="round" stroke-linejoin="round">
                                <path d="M0.474437628,0.948328267 L28.4662577,0.948328267" id="Line-Copy-25"></path>
                                <path d="M0.474437628,11.3799392 L22.7730061,11.3799392" id="Line-Copy-26"></path>
                                <path d="M0.474437628,21.8115502 L33.2106339,21.8115502" id="Line-Copy-27"></path>
                                <path d="M0.406660824,32.2431611 L28.4662577,32.2431611" id="Line-Copy-28"></path>
                                <path d="M0.474437628,42.674772 L33.2106339,42.674772" id="Line-Copy-29"></path>
                                <path d="M0.406660824,53.106383 L28.4662577,53.106383" id="Line-Copy-30"></path>
                            </g>
                            <g id="Sidebar-header" transform="translate(5.693252, 11.379939)">
                                <ellipse id="Oval-36" stroke="#FFFFFF" cx="5.69325153" cy="5.6899696" rx="5.69325153" ry="5.6899696"></ellipse>
                                <path d="M17.5541922,3.79331307 L33.2106339,3.79331307" id="Line" stroke="#EBCA7D" stroke-width="2" stroke-linecap="round" stroke-linejoin="round"></path>
                                <path d="M17.5541922,7.58662614 L27.5173824,7.58662614" id="Line-Copy-24" stroke="#EBCA7D" stroke-width="2" stroke-linecap="round" stroke-linejoin="round"></path>
                            </g>
                        </g>
                        <path d="M86.3476483,40.7781155 C89.8404581,40.7781155 89.8404581,44.5714286 93.332319,44.5714286 C96.8222822,44.5714286 96.8222822,40.7781155 100.312245,40.7781155 C103.804106,40.7781155 103.804106,44.5714286 107.295967,44.5714286 C110.787828,44.5714286 110.787828,40.7781155 114.27874,40.7781155 C117.770601,40.7781155 117.770601,44.5714286 121.262462,44.5714286 C124.755272,44.5714286 124.755272,40.7781155 128.247133,40.7781155 C131.740892,40.7781155 131.740892,44.5714286 135.23465,44.5714286 C138.72746,44.5714286 138.72746,40.7781155 142.22027,40.7781155 C145.715926,40.7781155 145.715926,44.5714286 149.210634,44.5714286 C152.705342,44.5714286 152.705342,40.7781155 156.200998,40.7781155" id="Header-scribble-Copy" stroke="#FFFFFF" stroke-width="4" stroke-linecap="round" stroke-linejoin="round"></path>
                        <g id="Group" transform="translate(76.858896, 70.176292)">
                            <ellipse id="Oval-39" stroke="#E977A6" cx="7.11656442" cy="7.11246201" rx="7.11656442" ry="7.11246201"></ellipse>
                            <ellipse id="Oval-39-Copy" stroke="#E977A6" cx="7.11656442" cy="31.768997" rx="7.11656442" ry="7.11246201"></ellipse>
                            <ellipse id="Oval-39-Copy-2" stroke="#E977A6" cx="7.11656442" cy="56.4255319" rx="7.11656442" ry="7.11246201"></ellipse>
                            <ellipse id="Oval-39-Copy-3" stroke="#E977A6" cx="7.11656442" cy="82.9787234" rx="7.11656442" ry="7.11246201"></ellipse>
                            <path d="M26.0940695,6.63829787 L94.4723637,6.63829787" id="Line" stroke="#FFFFFF" stroke-width="2" stroke-linecap="round" stroke-linejoin="round"></path>
                            <path d="M26.0940695,31.2948328 L66.4658948,31.2948328" id="Line-Copy-31" stroke="#FFFFFF" stroke-width="2" stroke-linecap="round" stroke-linejoin="round"></path>
                            <path d="M26.0940695,55.9513678 L74.9611452,55.9513678" id="Line-Copy-32" stroke="#FFFFFF" stroke-width="2" stroke-linecap="round" stroke-linejoin="round"></path>
                            <path d="M26.0940695,82.5045593 L84.4498978,82.5045593" id="Line-Copy-33" stroke="#FFFFFF" stroke-width="2" stroke-linecap="round" stroke-linejoin="round"></path>
                        </g>
                        <ellipse id="Oval-31" stroke="#E18769" cx="121.456033" cy="19.9148936" rx="8.5398773" ry="8.53495441"></ellipse>
                    </g>
                    <g id="Connector" transform="translate(185.030675, 81.556231)">
                        <path d="M76.8588957,98.5914128 C76.6511971,98.6143595 76.4401312,98.6261398 76.2263122,98.6261398 C73.0820162,98.6261398 70.5330607,96.0786537 70.5330607,92.9361702 C70.5330607,89.7936868 73.0820162,87.2462006 76.2263122,87.2462006 C76.4401312,87.2462006 76.6511971,87.2579809 76.8588957,87.2809276 L76.8588957,98.5914128 Z" id="Combined-Shape" fill="#9AEFDD"></path>
                        <ellipse id="Oval-43" fill="#9AEFDD" cx="5.21881391" cy="5.21580547" rx="5.21881391" ry="5.21580547"></ellipse>
                        <path d="M6.16768916,6.16413374 L73.5378323,93.4103343" id="Line" stroke="#9AEFDD" stroke-linecap="square" stroke-dasharray="1,5"></path>
                    </g>
                </g>
            </g>
        </g>
    </g>
</svg>