<?xml version="1.0" encoding="utf-8"?>
<!-- Generator: Adobe Illustrator 19.2.1, SVG Export Plug-In . SVG Version: 6.00 Build 0)  -->
<svg version="1.1" id="Layer_1" xmlns="http://www.w3.org/2000/svg" xmlns:xlink="http://www.w3.org/1999/xlink" x="0px" y="0px"
	 viewBox="0 0 150 150" style="enable-background:new 0 0 150 150;" xml:space="preserve">
<style type="text/css">
	.st0{fill:#222222;stroke:#BF8FED;stroke-linecap:round;stroke-linejoin:round;stroke-miterlimit:10;}
	.st1{fill:none;stroke:#BF8FED;stroke-linecap:round;stroke-linejoin:round;stroke-miterlimit:10;}
	.st2{fill:#FFFFFF;stroke:#BF8FED;stroke-linecap:round;stroke-linejoin:round;stroke-miterlimit:10;}
	.st3{fill:none;stroke:#9AEFDD;stroke-linecap:round;stroke-linejoin:round;stroke-miterlimit:10;}
</style>
<g>
	<g>
		<path class="st0" d="M86.2,81.1v36.7c0,2.6,1.8,4.9,4.4,5.2c2.9,0.3,5.4-2,5.4-4.9v-2.7c0-7.7,6.2-14.1,13.8-14.4
			c2.3-0.1,4.6,1.4,5,3.7c0.5,2.9-1.7,5.5-4.6,5.4c-2.9-0.1-5.2,2.4-5.2,5.3v2.2c0,7.1-5.1,13.5-12.2,14.4
			c-8.5,1.1-15.8-5.6-15.8-13.9V81.3c0-1.8-1.4-3.2-3.2-3.2h0c-1.8,0-3.2,1.4-3.2,3.2v47.2c0,7.1-5.6,12.8-12.5,13.2
			c-2.6,0.1-5-1.7-5.1-4.2c-0.2-2.7,1.9-4.9,4.6-4.8c2.2,0,4.1-2.2,4.1-4.4l0-47.2c0-1.6-1.3-2.9-2.9-2.9h0c-1.6,0-2.9,1.3-2.9,2.9
			v4.3c0,7.1-5.1,13.5-12.2,14.4c-8.5,1.1-15.8-5.6-15.8-13.9l0-21.2c0-2.9-2.3-5.4-5.2-5.3c-2.9,0.1-5.1-2.5-4.6-5.4
			c0.4-2.2,2.7-3.7,5-3.7c7.7,0.3,13.8,6.6,13.8,14.4v20.9c0,2.6,1.8,4.9,4.4,5.2c2.9,0.3,5.4-2,5.4-4.9v-8.7l0-1.4l0-22.1
			c0-14.9,11.7-27.7,26.6-28c15.2-0.3,27.6,11.9,27.6,27.1l0.1,24.6l0,1c0,2.6,1.9,4.9,4.4,5.2c2.9,0.3,5.4-2,5.4-4.9V46.1
			c0-7.7,6.2-14.1,13.8-14.4c2.3-0.1,4.6,1.4,5,3.7c0.5,2.9-1.7,5.5-4.6,5.4c-2.9-0.1-5.2,2.4-5.2,5.3V78c0,6.6-4.3,12.7-10.8,14.3
			c-8.2,2-15.6-3.9-17-11.5c-0.3-1.5-1.5-2.6-2.9-2.6h0C87.6,78.2,86.2,79.5,86.2,81.1z"/>
		<path class="st1" d="M62.6,28.3c2.4,1.4,4.1,4.1,4.1,7.1c0,4.6-3.7,8.3-8.3,8.3c-3.3,0-6.2-2-7.5-4.8"/>
		<circle class="st1" cx="73.8" cy="35.1" r="2.2"/>
		<circle class="st1" cx="81.8" cy="41.8" r="4.5"/>
		<path class="st0" d="M90.3,63.5c0-0.9,0.7-1.6,1.6-1.6c0.9,0,1.6,0.7,1.6,1.6"/>
		<path class="st0" d="M54.2,63.5c0-0.9,0.7-1.6,1.6-1.6s1.6,0.7,1.6,1.6"/>
	</g>
	<line class="st0" x1="27.8" y1="66.6" x2="26.6" y2="66.6"/>
	<line class="st0" x1="27.8" y1="73.4" x2="26.6" y2="73.4"/>
	<line class="st0" x1="27.8" y1="80.8" x2="26.6" y2="80.8"/>
	<line class="st0" x1="72.3" y1="109.8" x2="71" y2="109.8"/>
	<line class="st0" x1="121.8" y1="60.9" x2="120.1" y2="60.9"/>
	<line class="st0" x1="121.8" y1="53.9" x2="120.1" y2="53.9"/>
	<line class="st0" x1="121.8" y1="67.8" x2="120.1" y2="67.8"/>
	<line class="st0" x1="72.3" y1="105.4" x2="71" y2="105.4"/>
	<line class="st0" x1="106.8" y1="119" x2="105.3" y2="119"/>
	<line class="st0" x1="104.2" y1="126.5" x2="103.3" y2="125.6"/>
	<line class="st0" x1="97.3" y1="132.3" x2="96.9" y2="131.2"/>
	<line class="st2" x1="64.2" y1="67" x2="83.9" y2="67"/>
	<path class="st1" d="M52,85.7c0,5.8-4.7,10.5-10.5,10.5"/>
	<path class="st1" d="M102.7,88.5c-2.8-1-5-3.1-6.1-5.9"/>
	<path class="st1" d="M86,126.6c-1.9-0.7-3.4-2.1-4.1-4"/>
	<line class="st0" x1="72.1" y1="69.8" x2="75.5" y2="69.8"/>
</g>
<g id="bubble-two">
	<path class="st3" d="M97.3,19c0.3,0,0.7,0.1,0.9,0.2c0.4,0.2,0.8,0.5,1.1,0.9"/>
	<circle class="st3" cx="97.3" cy="21.4" r="3.9"/>
</g>
<g id="bubble-three">
	<circle class="st3" cx="105.2" cy="8.9" r="4.9"/>
	<path class="st3" d="M105.2,5.5c0.9,0,1.8,0.4,2.4,1"/>
	<path class="st3" d="M108.3,7.7c0.1,0.4,0.2,0.8,0.2,1.2"/>
</g>
<g id="bubble-one">
	<circle class="st3" cx="102.7" cy="31.7" r="1.1"/>
</g>
</svg>
