<?xml version="1.0" encoding="UTF-8" standalone="no"?>
<svg width="527px" height="417px" viewBox="0 0 527 417" version="1.1" xmlns="http://www.w3.org/2000/svg" xmlns:xlink="http://www.w3.org/1999/xlink">
    <!-- Generator: Sketch 3.6.1 (26313) - http://www.bohemiancoding.com/sketch -->
    <title>iMac</title>
    <desc>Created with Sketch.</desc>
    <defs></defs>
    <g id="Page-1" stroke="none" stroke-width="1" fill="none" fill-rule="evenodd">
        <g id="Artboard-1-Copy-2" transform="translate(-813.000000, -1565.000000)">
            <g id="UI" transform="translate(-23.000000, 1533.000000)">
                <g id="iMac" transform="translate(836.000000, 32.000000)">
                    <g id="Body" stroke-width="2">
                        <g id="Base" transform="translate(193.000000, 362.000000)" stroke="#FFFFFF">
                            <path d="M21,0.5 L21,42.5" id="Line" stroke-linecap="square"></path>
                            <rect id="Rectangle-16" x="0" y="43" width="140" height="12" rx="4"></rect>
                            <path d="M121,0.5 L121,42.5" id="Line-Copy-10" stroke-linecap="square"></path>
                        </g>
                        <g id="Screen">
                            <path d="M21.5,34 L502.5,34" id="Line" stroke="#50E3C2" stroke-linecap="square"></path>
                            <rect id="Rectangle-12" stroke="#FFFFFF" x="0" y="0" width="527" height="363" rx="17"></rect>
                            <path d="M1.41097724,313.660194 L525.589023,313.660194" id="Line" stroke="#FFFFFF" stroke-linecap="square"></path>
                            <rect id="Rectangle-13" stroke="#FFFFFF" x="19.7536814" y="21.8504854" width="484.670683" height="274.18835"></rect>
                            <path d="M274.695479,341.878662 C273.30557,346.74771 268.819475,350.312621 263.5,350.312621 C257.071095,350.312621 251.859438,345.10565 251.859438,338.682524 C251.859438,332.259399 257.071095,327.052427 263.5,327.052427 C266.437816,327.052427 269.121445,328.139755 271.169719,329.933586 C269.832946,331.208433 269,333.006944 269,335 C269,338.420192 271.452893,341.26748 274.695479,341.878662 Z" id="Combined-Shape" stroke="#E18769" stroke-linecap="round" stroke-linejoin="round"></path>
                        </g>
                    </g>
                    <g id="Large-window" transform="translate(35.000000, 48.000000)">
                        <g id="Grid" opacity="0.349871735" transform="translate(38.000000, 16.000000)" stroke-linecap="square" stroke="#50E3C2">
                            <g id="Group-8">
                                <path d="M1.5,0.5 L1.5,207.5" id="Line"></path>
                                <path d="M7.5,0.5 L7.5,207.5" id="Line-Copy-14"></path>
                            </g>
                            <g id="Group-4" transform="translate(29.000000, 0.000000)">
                                <path d="M1.5,0.5 L1.5,207.5" id="Line-Copy-15"></path>
                                <path d="M8.5,0.5 L8.5,207.5" id="Line-Copy-16"></path>
                            </g>
                            <g id="Group-4-Copy" transform="translate(59.000000, 0.000000)">
                                <path d="M1.5,0.5 L1.5,207.5" id="Line-Copy-15"></path>
                                <path d="M8.5,0.5 L8.5,207.5" id="Line-Copy-16"></path>
                            </g>
                            <g id="Group-4-Copy-2" transform="translate(89.000000, 0.000000)">
                                <path d="M1.5,0.5 L1.5,207.5" id="Line-Copy-15"></path>
                                <path d="M8.5,0.5 L8.5,207.5" id="Line-Copy-16"></path>
                            </g>
                            <g id="Group-4-Copy-3" transform="translate(119.000000, 0.000000)">
                                <path d="M1.5,0.5 L1.5,207.5" id="Line-Copy-15"></path>
                                <path d="M8.5,0.5 L8.5,207.5" id="Line-Copy-16"></path>
                            </g>
                            <g id="Group-4-Copy-4" transform="translate(149.000000, 0.000000)">
                                <path d="M1.5,0.5 L1.5,207.5" id="Line-Copy-15"></path>
                                <path d="M8.5,0.5 L8.5,207.5" id="Line-Copy-16"></path>
                            </g>
                            <g id="Group-4-Copy-5" transform="translate(179.000000, 0.000000)">
                                <path d="M1.5,0.5 L1.5,207.5" id="Line-Copy-15"></path>
                                <path d="M8.5,0.5 L8.5,207.5" id="Line-Copy-16"></path>
                            </g>
                            <g id="Group-6" transform="translate(209.000000, 0.000000)">
                                <path d="M8.5,0.5 L8.5,207.5" id="Line-Copy-13"></path>
                                <path d="M1.5,0.5 L1.5,207.5" id="Line-Copy-17"></path>
                            </g>
                        </g>
                        <path d="M0.5,15.5 L293.638184,15.5" id="Line" stroke="#EBCA7D" stroke-linecap="square"></path>
                        <rect id="Rectangle-14" stroke="#EBCA7D" x="0" y="0" width="294" height="225" rx="5"></rect>
                        <g id="Traffic-Lights" transform="translate(7.000000, 6.000000)">
                            <circle id="Oval-21" stroke="#E977A6" cx="2" cy="2" r="2"></circle>
                            <circle id="Oval-21-Copy" stroke="#EBCA7D" cx="12" cy="2" r="2"></circle>
                            <circle id="Oval-21-Copy-2" stroke="#50E3C2" cx="22" cy="2" r="2"></circle>
                        </g>
                        <g id="Nav" transform="translate(46.000000, 31.000000)">
                            <path d="M147.5,7.5 L160.538404,7.5" id="Line" stroke="#C08FED" stroke-linecap="square"></path>
                            <path d="M167.5,7.5 L180.538404,7.5" id="Line-Copy-11" stroke="#C08FED" stroke-linecap="square"></path>
                            <path d="M188.5,7.5 L201.538404,7.5" id="Line-Copy-12" stroke="#C08FED" stroke-linecap="square"></path>
                            <circle id="Oval-5" stroke="#E18769" cx="8" cy="8" r="8"></circle>
                        </g>
                        <circle id="Oval-28" stroke="#E977A6" cx="84" cy="116" r="25"></circle>
                        <g id="Group-10" transform="translate(165.000000, 94.000000)">
                            <path d="M1,15 C4.681,15 4.681,19 8.361,19 C12.039,19 12.039,15 15.717,15 C19.397,15 19.397,19 23.077,19 C26.757,19 26.757,15 30.436,15 C34.116,15 34.116,19 37.796,19 C41.477,19 41.477,15 45.157,15 C48.839,15 48.839,19 52.521,19 C56.202,19 56.202,15 59.883,15 C63.567,15 63.567,19 67.25,19 C70.933,19 70.933,15 74.617,15" id="Page-1" stroke="#9AEFDD" stroke-linecap="round" stroke-linejoin="round"></path>
                            <path d="M1,0 C4.681,0 4.681,4 8.361,4 C12.039,4 12.039,0 15.717,0 C19.397,0 19.397,4 23.077,4 C26.757,4 26.757,0 30.436,0 C34.116,0 34.116,4 37.796,4 C41.477,4 41.477,0 45.157,0 C48.839,0 48.839,4 52.521,4 C56.202,4 56.202,0 59.883,0 C63.567,0 63.567,4 67.25,4 C70.933,4 70.933,0 74.617,0" id="Page-1-Copy-4" stroke="#FFFFFF" stroke-width="4" stroke-linecap="round" stroke-linejoin="round"></path>
                            <path d="M1,28 C4.681,28 4.681,32 8.361,32 C12.039,32 12.039,28 15.717,28 C19.397,28 19.397,32 23.077,32 C26.757,32 26.757,28 30.436,28 C34.116,28 34.116,32 37.796,32 C41.477,32 41.477,28 45.157,28 C48.839,28 48.839,32 52.521,32 C56.202,32 56.202,28 59.883,28 C63.567,28 63.567,32 67.25,32 C70.933,32 70.933,28 74.617,28" id="Page-1-Copy-5" stroke="#9AEFDD" stroke-linecap="round" stroke-linejoin="round"></path>
                            <path d="M1,50.5 L1,50.5 C1,53.5330759 3.46371059,56 6.49657188,56 L34.5034281,56 C37.534481,56 40,53.5350503 40,50.5 C40,47.4669241 37.5362894,45 34.5034281,45 L6.49657188,45 C3.46551898,45 1,47.4649497 1,50.5 L1,50.5 Z M0,50.5 C0,46.9101491 2.91575059,44 6.49657188,44 L34.5034281,44 C38.0913857,44 41,46.9174538 41,50.5 C41,54.0898509 38.0842494,57 34.5034281,57 L6.49657188,57 C2.90861431,57 0,54.0825462 0,50.5 L0,50.5 Z" id="Rectangle-17" fill="#FFFFFF"></path>
                        </g>
                        <g id="Handles" transform="translate(58.000000, 139.000000)">
                            <circle id="Oval-45" fill="#C08FED" cx="51.5" cy="2.5" r="2.5"></circle>
                            <circle id="Oval-45-Copy" fill="#C08FED" cx="2.5" cy="2.5" r="2.5"></circle>
                            <path d="M28.5,2.5 L51.586792,2.5" id="Line" stroke="#C08FED" stroke-linecap="square"></path>
                            <path d="M1.5,2.5 L24.586792,2.5" id="Line-Copy-34" stroke="#C08FED" stroke-linecap="square"></path>
                            <rect id="Rectangle-23" fill="#C08FED" x="24" y="0" width="5" height="5"></rect>
                        </g>
                    </g>
                    <g id="Small-Window" transform="translate(359.000000, 48.000000)">
                        <path d="M0.181972789,15.5 L106.868319,15.5" id="Line" stroke="#EBCA7D" stroke-linecap="square"></path>
                        <rect id="Rectangle-14" stroke="#EBCA7D" x="0" y="0" width="107" height="224" rx="5"></rect>
                        <g id="Traffic-lights" transform="translate(7.000000, 6.000000)">
                            <circle id="Oval-21" stroke="#E977A6" cx="2" cy="2" r="2"></circle>
                            <circle id="Oval-21-Copy" stroke="#EBCA7D" cx="12" cy="2" r="2"></circle>
                            <circle id="Oval-21-Copy-2" stroke="#50E3C2" cx="22" cy="2" r="2"></circle>
                        </g>
                        <circle id="Oval-28" stroke="#E977A6" cx="53" cy="100" r="17"></circle>
                        <circle id="Oval-5" stroke="#E18769" cx="54" cy="35" r="8"></circle>
                        <g id="Nav" transform="translate(26.000000, 54.000000)" stroke="#C08FED" stroke-linecap="square">
                            <path d="M0.5,1.5 L13.5384045,1.5" id="Line"></path>
                            <path d="M20.5,1.5 L33.5384045,1.5" id="Line-Copy-11"></path>
                            <path d="M41.5,1.5 L54.5384045,1.5" id="Line-Copy-12"></path>
                        </g>
                        <g id="Group-10" transform="translate(17.000000, 136.000000)">
                            <path d="M0,15 C3.681,15 3.681,19 7.361,19 C11.039,19 11.039,15 14.717,15 C18.397,15 18.397,19 22.077,19 C25.757,19 25.757,15 29.436,15 C33.116,15 33.116,19 36.796,19 C40.477,19 40.477,15 44.157,15 C47.839,15 47.839,19 51.521,19 C55.202,19 55.202,15 58.883,15 C62.567,15 62.567,19 66.25,19 C69.933,19 69.933,15 73.617,15" id="Page-1" stroke="#9AEFDD" stroke-linecap="round" stroke-linejoin="round"></path>
                            <path d="M0,0 C3.681,0 3.681,4 7.361,4 C11.039,4 11.039,0 14.717,0 C18.397,0 18.397,4 22.077,4 C25.757,4 25.757,0 29.436,0 C33.116,0 33.116,4 36.796,4 C40.477,4 40.477,0 44.157,0 C47.839,0 47.839,4 51.521,4 C55.202,4 55.202,0 58.883,0 C62.567,0 62.567,4 66.25,4 C69.933,4 69.933,0 73.617,0" id="Page-1-Copy-4" stroke="#FFFFFF" stroke-width="4" stroke-linecap="round" stroke-linejoin="round"></path>
                            <path d="M0,28 C3.681,28 3.681,32 7.361,32 C11.039,32 11.039,28 14.717,28 C18.397,28 18.397,32 22.077,32 C25.757,32 25.757,28 29.436,28 C33.116,28 33.116,32 36.796,32 C40.477,32 40.477,28 44.157,28 C47.839,28 47.839,32 51.521,32 C55.202,32 55.202,28 58.883,28 C62.567,28 62.567,32 66.25,32 C69.933,32 69.933,28 73.617,28" id="Page-1-Copy-5" stroke="#9AEFDD" stroke-linecap="round" stroke-linejoin="round"></path>
                            <path d="M17,56.5 L17,56.5 C17,59.5330759 19.4637106,62 22.4965719,62 L50.5034281,62 C53.534481,62 56,59.5350503 56,56.5 C56,53.4669241 53.5362894,51 50.5034281,51 L22.4965719,51 C19.465519,51 17,53.4649497 17,56.5 L17,56.5 Z M16,56.5 C16,52.9101491 18.9157506,50 22.4965719,50 L50.5034281,50 C54.0913857,50 57,52.9174538 57,56.5 C57,60.0898509 54.0842494,63 50.5034281,63 L22.4965719,63 C18.9086143,63 16,60.0825462 16,56.5 L16,56.5 Z" id="Rectangle-17" fill="#FFFFFF"></path>
                        </g>
                    </g>
                </g>
            </g>
        </g>
    </g>
</svg>