<?xml version="1.0" encoding="UTF-8" standalone="no"?>
<svg width="47px" height="67px" viewBox="0 0 47 67" version="1.1" xmlns="http://www.w3.org/2000/svg" xmlns:xlink="http://www.w3.org/1999/xlink" xmlns:sketch="http://www.bohemiancoding.com/sketch/ns">
    <!-- Generator: Sketch 3.5.2 (25235) - http://www.bohemiancoding.com/sketch -->
    <title>Lantern</title>
    <desc>Created with Sketch.</desc>
    <defs></defs>
    <g id="Page-1" stroke="none" stroke-width="1" fill="none" fill-rule="evenodd" sketch:type="MSPage">
        <g id="Artboard-1" sketch:type="MSArtboardGroup" transform="translate(-552.000000, -173.000000)" stroke-linecap="round" stroke="#E18769">
            <g id="Group" sketch:type="MSLayerGroup" transform="translate(461.000000, 174.000000)">
                <g id="Page-1" transform="translate(6.000000, 0.000000)" sketch:type="MSShapeGroup">
                    <g id="Lantern" transform="translate(86.315486, 0.000000)">
                        <path d="M22.07663,0.285398148 C19.579602,0.285398148 17.5551143,2.31725 17.5551143,4.82336111 C17.5551143,7.32947222 19.579602,9.36072222 22.07663,9.36072222 C24.573658,9.36072222 26.5981456,7.32947222 26.5981456,4.82336111 C26.5981456,2.31725 24.573658,0.285398148 22.07663,0.285398148 L22.07663,0.285398148 Z" id="Stroke-25" stroke-width="2.4000001"></path>
                        <path d="M22.07663,10.0381667 L37.7957931,23.6532593 L6.35746689,23.6532593 L22.07663,10.0381667 L22.07663,10.0381667 Z" id="Stroke-27" stroke-width="3.00000012" stroke-linejoin="round"></path>
                        <path d="M10.9028494,23.6534398 L10.9028494,49.713625" id="Stroke-29" stroke-width="3.00000012" stroke-linejoin="round"></path>
                        <path d="M32.5120962,23.6534398 L32.5120962,49.713625" id="Stroke-31" stroke-width="3.00000012" stroke-linejoin="round"></path>
                        <path d="M37.7954932,50.3157176 C37.7954932,59.0287269 30.7577601,64.1727546 22.0763301,64.1727546 C13.3954998,64.1727546 6.35776672,59.0287269 6.35776672,50.3157176 L37.7954932,50.3157176 L37.7954932,50.3157176 Z" id="Stroke-33" stroke-width="2.4000001"></path>
                        <path d="M18.7524165,39.6628796 C18.7949931,42.3098241 20.3031644,43.4930648 22.1387558,43.4629722 C23.9743473,43.4328796 25.4429404,42.2014907 25.4003638,39.5545463 C25.3577871,36.9076019 22.0044297,29.2701019 22.0044297,29.2701019 C22.0044297,29.2701019 18.7098399,37.0159352 18.7524165,39.6628796 L18.7524165,39.6628796 Z" id="Stroke-35" stroke-width="2.4000001" stroke-linejoin="round"></path>
                        <path d="M22.1735367,43.4630324 L22.1735367,50.3157176" id="Stroke-37" stroke-width="2.4000001" stroke-linejoin="round"></path>
                        <path d="M37.7954932,31.1743009 L42.9838425,28.196338" id="Stroke-39" stroke-width="2.4000001" stroke-linejoin="round"></path>
                        <path d="M37.7954932,42.0391713 L42.9838425,45.0171343" id="Stroke-41" stroke-width="2.4000001" stroke-linejoin="round"></path>
                        <path d="M37.7954932,36.3668981 L43.5403367,36.3668981" id="Stroke-43" stroke-width="2.4000001" stroke-linejoin="round"></path>
                        <path d="M5.7610346,31.1743009 L0.572685338,28.196338" id="Stroke-45" stroke-width="2.4000001" stroke-linejoin="round"></path>
                        <path d="M5.7610346,42.0391713 L0.572685338,45.0171343" id="Stroke-47" stroke-width="2.4000001" stroke-linejoin="round"></path>
                        <path d="M5.7610346,36.3668981 L0.0161911038,36.3668981" id="Stroke-49" stroke-width="2.4000001" stroke-linejoin="round"></path>
                    </g>
                </g>
            </g>
        </g>
    </g>
</svg>