<?xml version="1.0" encoding="UTF-8" standalone="no"?>
<svg width="74px" height="6px" viewBox="0 0 74 6" version="1.1" xmlns="http://www.w3.org/2000/svg" xmlns:xlink="http://www.w3.org/1999/xlink" xmlns:sketch="http://www.bohemiancoding.com/sketch/ns">
    <!-- Generator: Sketch 3.5.2 (25235) - http://www.bohemiancoding.com/sketch -->
    <title>Page 1</title>
    <desc>Created with Sketch.</desc>
    <defs></defs>
    <g id="Page-1" stroke="none" stroke-width="1" fill="none" fill-rule="evenodd" sketch:type="MSPage">
        <g id="Artboard-1" sketch:type="MSArtboardGroup" transform="translate(-1067.000000, -80.000000)" stroke="#9AEFDD">
            <g id="Group-6" sketch:type="MSLayerGroup" transform="translate(1060.000000, 45.000000)">
                <path d="M7,36 C10.681,36 10.681,40 14.361,40 C18.039,40 18.039,36 21.717,36 C25.397,36 25.397,40 29.077,40 C32.757,40 32.757,36 36.436,36 C40.116,36 40.116,40 43.796,40 C47.477,40 47.477,36 51.157,36 C54.839,36 54.839,40 58.521,40 C62.202,40 62.202,36 65.883,36 C69.567,36 69.567,40 73.25,40 C76.933,40 76.933,36 80.617,36" id="Page-1" sketch:type="MSShapeGroup"></path>
            </g>
        </g>
    </g>
</svg>