<?xml version="1.0" encoding="UTF-8" standalone="no"?>
<svg width="380px" height="385px" viewBox="0 0 380 385" version="1.1" xmlns="http://www.w3.org/2000/svg" xmlns:xlink="http://www.w3.org/1999/xlink">
    <!-- Generator: Sketch 3.6.1 (26313) - http://www.bohemiancoding.com/sketch -->
    <title>Hexagons</title>
    <desc>Created with Sketch.</desc>
    <defs></defs>
    <g id="Page-1" stroke="none" stroke-width="1" fill="none" fill-rule="evenodd">
        <g id="Artboard-1-Copy-2" transform="translate(-930.000000, -3114.000000)">
            <g id="Frontend" transform="translate(-23.000000, 3114.000000)">
                <g id="Hexagons" transform="translate(953.000000, 0.000000)">
                    <g id="Atom" transform="translate(149.000000, 0.000000)">
                        <rect id="Rectangle-24" stroke="#EBCA7D" stroke-width="2" transform="translate(115.500000, 115.500000) rotate(-45.000000) translate(-115.500000, -115.500000) " x="34" y="34" width="163" height="163"></rect>
                        <g transform="translate(119.500000, 116.500000) scale(-1, 1) translate(-119.500000, -116.500000) translate(61.000000, 53.000000)">
                            <circle id="Oval-47" fill="#C08FED" cx="59.5" cy="59.5" r="15.5"></circle>
                            <circle id="Oval-47-Copy" stroke="#9AEFDD" stroke-width="2" cx="59" cy="59" r="38"></circle>
                            <circle id="Oval-47-Copy-2" stroke="#E977A6" stroke-width="2" cx="58.5" cy="58.5" r="58.5"></circle>
                            <circle id="Oval-50" fill="#9AEFDD" cx="14.5" cy="20.5" r="9.5"></circle>
                            <circle id="Oval-50-Copy-2" fill="#E18769" cx="57.5" cy="117.5" r="9.5"></circle>
                            <circle id="Oval-50-Copy" fill="#E977A6" cx="82.5" cy="30.5" r="9.5"></circle>
                        </g>
                    </g>
                    <g id="Elements" transform="translate(0.000000, 154.000000)">
                        <rect id="Rectangle-24-Copy-3" stroke="#EBCA7D" stroke-width="2" transform="translate(115.500000, 115.500000) rotate(-45.000000) translate(-115.500000, -115.500000) " x="34" y="34" width="163" height="163"></rect>
                        <g id="Group-19" transform="translate(43.000000, 55.000000)">
                            <path d="M66.1493978,115.298211 L66.3577216,119.803085 C65.6945045,120.044979 65.0569834,120.352341 64.4545639,120.720627 L61.0663604,117.748827 C58.9690856,119.305528 57.3139837,121.383299 56.264708,123.776689 L59.9126853,126.422378 C59.6880861,127.092302 59.5306299,127.782936 59.4426448,128.484076 L55.0093016,129.283178 C54.9173796,131.895331 55.5080787,134.486264 56.7229929,136.799812 L61.0636286,135.594053 C61.4467717,136.18754 61.887952,136.741385 62.3806507,137.247406 L60.2405622,141.215669 C62.2232114,142.916266 64.6149056,144.069342 67.1791309,144.560881 L68.9438299,140.411637 C69.6462,140.481779 70.3538005,140.481779 71.0561705,140.411637 L72.8208695,144.560881 C75.3851209,144.06934 77.7768086,142.916266 79.7594382,141.215669 L77.6193498,137.247406 C78.1120491,136.741385 78.5532313,136.187539 78.9363719,135.594053 L83.2770076,136.799812 C84.4919231,134.486277 85.0826182,131.895337 84.9906989,129.283178 L80.5573557,128.484076 C80.4693705,127.782936 80.311915,127.092302 80.0873151,126.422378 L83.7352924,123.776689 C83.211231,122.581305 82.5360456,121.464657 81.7301255,120.452337 C80.9224327,119.43779 79.9834295,118.528033 78.9336401,117.748827 L75.5454365,120.720627 C74.9430216,120.35234 74.3054959,120.044977 73.6422788,119.803085 L73.8506026,115.298211 C73.8506026,115.298211 68.6727245,114.627237 66.1493978,115.298211 Z M70.0000185,125.020386 C72.6433054,125.020386 74.7861099,127.165603 74.7861099,129.811866 C74.7861099,132.458129 72.6433054,134.603347 70.0000185,134.603347 C67.3567316,134.603347 65.213927,132.458129 65.213927,129.811866 C65.213927,127.165603 67.3567316,125.020386 70.0000185,125.020386 L70.0000185,125.020386 Z" id="Shape-Copy-4" stroke="#9AEFDD" stroke-width="2" stroke-linecap="round" stroke-linejoin="round" transform="translate(70.000000, 129.780440) rotate(-180.000000) translate(-70.000000, -129.780440) "></path>
                            <g id="srch" transform="translate(27.000000, 0.000000)" fill="#9AEFDD">
                                <path d="M2,5.00197269 L2,5.00197269 L2,18.9980273 C2,20.6574869 3.34414985,22 5.00589284,22 L85.9941072,22 C87.6563902,22 89,20.6568723 89,18.9980273 L89,5.00197269 C89,3.34251309 87.6558502,2 85.9941072,2 L5.00589284,2 C3.34360977,2 2,3.34312767 2,5.00197269 L2,5.00197269 Z M0,5.00197269 C0,2.23945945 2.23813855,0 5.00589284,0 L85.9941072,0 C88.7587854,0 91,2.23630996 91,5.00197269 L91,18.9980273 C91,21.7605405 88.7618615,24 85.9941072,24 L5.00589284,24 C2.24121457,24 0,21.76369 0,18.9980273 L0,5.00197269 L0,5.00197269 Z" id="Rectangle-40"></path>
                                <g id="cls" transform="translate(74.000000, 6.000000)">
                                    <path d="M0.792893219,2.20710678 L8.30954151,9.72375507 C8.7000658,10.1142794 9.33323078,10.1142794 9.72375507,9.72375507 C10.1142794,9.33323078 10.1142794,8.7000658 9.72375507,8.30954151 L2.20710678,0.792893219 C1.81658249,0.402368927 1.18341751,0.402368927 0.792893219,0.792893219 C0.402368927,1.18341751 0.402368927,1.81658249 0.792893219,2.20710678 L0.792893219,2.20710678 Z" id="Line"></path>
                                    <path d="M8.79289322,0.792893219 L1.27624493,8.30954151 C0.885720635,8.7000658 0.885720635,9.33323078 1.27624493,9.72375507 C1.66676922,10.1142794 2.2999342,10.1142794 2.69045849,9.72375507 L10.2071068,2.20710678 C10.5976311,1.81658249 10.5976311,1.18341751 10.2071068,0.792893219 C9.81658249,0.402368927 9.18341751,0.402368927 8.79289322,0.792893219 L8.79289322,0.792893219 Z" id="Line-Copy-38"></path>
                                </g>
                                <g id="mag" transform="translate(11.000000, 13.000000) rotate(41.000000) translate(-11.000000, -13.000000) translate(6.000000, 5.000000)">
                                    <path d="M6,14.5 L6,9.5 C6,8.94771525 5.55228475,8.5 5,8.5 C4.44771525,8.5 4,8.94771525 4,9.5 L4,14.5 C4,15.0522847 4.44771525,15.5 5,15.5 C5.55228475,15.5 6,15.0522847 6,14.5 L6,14.5 Z" id="Line"></path>
                                    <path d="M5,10 C7.76142375,10 10,7.76142375 10,5 C10,2.23857625 7.76142375,-2.52242671e-13 5,-2.52242671e-13 C2.23857625,-2.52242671e-13 3.26849658e-13,2.23857625 3.26849658e-13,5 C3.26849658e-13,7.76142375 2.23857625,10 5,10 L5,10 Z M5,8 C3.34314575,8 2,6.65685425 2,5 C2,3.34314575 3.34314575,2 5,2 C6.65685425,2 8,3.34314575 8,5 C8,6.65685425 6.65685425,8 5,8 L5,8 Z" id="Oval-67"></path>
                                </g>
                            </g>
                            <g id="Checklist" transform="translate(0.000000, 46.000000)">
                                <g id="Group-22">
                                    <g id="Group-21">
                                        <path d="M2,1.99961498 L2,1.99961498 L2,8.00038502 C2,8.00408111 1.99590783,8 1.99961498,8 L8.00038502,8 C8.00408111,8 8,8.00409217 8,8.00038502 L8,1.99961498 C8,1.99591889 8.00409217,2 8.00038502,2 L1.99961498,2 C1.99591889,2 2,1.99590783 2,1.99961498 L2,1.99961498 Z M0,1.99961498 C0,0.895258123 0.88743329,0 1.99961498,0 L8.00038502,0 C9.10474188,0 10,0.88743329 10,1.99961498 L10,8.00038502 C10,9.10474188 9.11256671,10 8.00038502,10 L1.99961498,10 C0.895258123,10 0,9.11256671 0,8.00038502 L0,1.99961498 L0,1.99961498 Z" id="Rectangle-41" fill="#C08FED"></path>
                                        <path d="M15.5,6 L54.5128174,6 C55.0651021,6 55.5128174,5.55228475 55.5128174,5 C55.5128174,4.44771525 55.0651021,4 54.5128174,4 L15.5,4 C14.9477153,4 14.5,4.44771525 14.5,5 C14.5,5.55228475 14.9477153,6 15.5,6 L15.5,6 Z" id="Line" fill="#FFFFFF"></path>
                                    </g>
                                    <g id="Group-21-Copy" transform="translate(0.000000, 13.000000)">
                                        <path d="M2,1.99961498 L2,1.99961498 L2,8.00038502 C2,8.00408111 1.99590783,8 1.99961498,8 L8.00038502,8 C8.00408111,8 8,8.00409217 8,8.00038502 L8,1.99961498 C8,1.99591889 8.00409217,2 8.00038502,2 L1.99961498,2 C1.99591889,2 2,1.99590783 2,1.99961498 L2,1.99961498 Z M0,1.99961498 C0,0.895258123 0.88743329,0 1.99961498,0 L8.00038502,0 C9.10474188,0 10,0.88743329 10,1.99961498 L10,8.00038502 C10,9.10474188 9.11256671,10 8.00038502,10 L1.99961498,10 C0.895258123,10 0,9.11256671 0,8.00038502 L0,1.99961498 L0,1.99961498 Z" id="Rectangle-41" fill="#C08FED"></path>
                                        <path d="M15.5,6 L54.5128174,6 C55.0651021,6 55.5128174,5.55228475 55.5128174,5 C55.5128174,4.44771525 55.0651021,4 54.5128174,4 L15.5,4 C14.9477153,4 14.5,4.44771525 14.5,5 C14.5,5.55228475 14.9477153,6 15.5,6 L15.5,6 Z" id="Line" fill="#FFFFFF"></path>
                                    </g>
                                    <g id="Group-21-Copy-2" transform="translate(0.000000, 27.000000)">
                                        <path d="M2,1.99961498 L2,1.99961498 L2,8.00038502 C2,8.00408111 1.99590783,8 1.99961498,8 L8.00038502,8 C8.00408111,8 8,8.00409217 8,8.00038502 L8,1.99961498 C8,1.99591889 8.00409217,2 8.00038502,2 L1.99961498,2 C1.99591889,2 2,1.99590783 2,1.99961498 L2,1.99961498 Z M0,1.99961498 C0,0.895258123 0.88743329,0 1.99961498,0 L8.00038502,0 C9.10474188,0 10,0.88743329 10,1.99961498 L10,8.00038502 C10,9.10474188 9.11256671,10 8.00038502,10 L1.99961498,10 C0.895258123,10 0,9.11256671 0,8.00038502 L0,1.99961498 L0,1.99961498 Z" id="Rectangle-41" fill="#C08FED"></path>
                                        <path d="M15.5,6 L54.5128174,6 C55.0651021,6 55.5128174,5.55228475 55.5128174,5 C55.5128174,4.44771525 55.0651021,4 54.5128174,4 L15.5,4 C14.9477153,4 14.5,4.44771525 14.5,5 C14.5,5.55228475 14.9477153,6 15.5,6 L15.5,6 Z" id="Line" fill="#FFFFFF"></path>
                                    </g>
                                </g>
                                <path d="M1.64167914,17.5948003 L4.12984168,20.0703425 L9.82844259,13" id="Path-379" stroke="#9AEFDD" stroke-width="2" stroke-linecap="round" stroke-linejoin="round"></path>
                            </g>
                            <g id="Dropdown" transform="translate(70.000000, 79.000000)">
                                <path d="M51.2644341,6.8423489 L55.1852618,11.6056365 C55.5828189,12.0886158 56.3212217,12.0921232 56.7233491,11.6129424 L60.8344565,6.71408655 C61.1894826,6.29103227 61.1343348,5.66027351 60.7112806,5.30524742 C60.2882263,4.95022134 59.6574675,5.00536909 59.3024414,5.42842337 L55.191334,10.3272792 L56.7294213,10.3345851 L52.8085936,5.57129754 C52.4576025,5.14488968 51.8273961,5.08375235 51.4009882,5.43474349 C50.9745803,5.78573463 50.913443,6.41594104 51.2644341,6.8423489 L51.2644341,6.8423489 Z" id="Path-380" fill="#E977A6"></path>
                                <path d="M7,9 L45,9 C45.5522847,9 46,8.55228475 46,8 C46,7.44771525 45.5522847,7 45,7 L7,7 C6.44771525,7 6,7.44771525 6,8 C6,8.55228475 6.44771525,9 7,9 L7,9 Z" id="Line-Copy-41" fill="#9AEFDD"></path>
                                <path d="M2,3.99620271 L2,3.99620271 L2,12.0037973 C2,13.1055227 2.89640149,14 4.00457066,14 L61.9954293,14 C63.0996098,14 64,13.1025227 64,12.0037973 L64,3.99620271 C64,2.89447727 63.1035985,2 61.9954293,2 L4.00457066,2 C2.90039017,2 2,2.89747733 2,3.99620271 L2,3.99620271 Z M0,3.99620271 C0,1.78916089 1.79956986,0 4.00457066,0 L61.9954293,0 C64.2070926,0 66,1.78883037 66,3.99620271 L66,12.0037973 C66,14.2108391 64.2004301,16 61.9954293,16 L4.00457066,16 C1.79290735,16 0,14.2111696 0,12.0037973 L0,3.99620271 L0,3.99620271 Z" id="Rectangle-44" fill="#E977A6"></path>
                            </g>
                            <g id="Arrows" transform="translate(82.000000, 42.000000)">
                                <g id="left">
                                    <circle id="Oval-68" stroke="#E18769" stroke-width="2" cx="11" cy="11" r="11"></circle>
                                    <path d="M11.6943015,6.66138064 L6.93101395,10.5822083 C6.44803459,10.9797654 6.44452718,11.7181682 6.92370805,12.1202956 L11.8225639,16.231403 C12.2456182,16.5864291 12.8763769,16.5312813 13.231403,16.1082271 C13.5864291,15.6851728 13.5312813,15.054414 13.1082271,14.6993879 L8.20937122,10.5882805 L8.20206532,12.1263678 L12.9653529,8.20554009 C13.3917607,7.85454895 13.4528981,7.22434254 13.1019069,6.79793468 C12.7509158,6.37152682 12.1207094,6.31038949 11.6943015,6.66138064 L11.6943015,6.66138064 Z" id="Path-380" fill="#E18769"></path>
                                </g>
                                <g id="left-copy" transform="translate(47.000000, 11.000000) rotate(180.000000) translate(-47.000000, -11.000000) translate(36.000000, 0.000000)">
                                    <circle id="Oval-68" stroke="#E18769" stroke-width="2" cx="11" cy="11" r="11"></circle>
                                    <path d="M11.6943015,6.66138064 L6.93101395,10.5822083 C6.44803459,10.9797654 6.44452718,11.7181682 6.92370805,12.1202956 L11.8225639,16.231403 C12.2456182,16.5864291 12.8763769,16.5312813 13.231403,16.1082271 C13.5864291,15.6851728 13.5312813,15.054414 13.1082271,14.6993879 L8.20937122,10.5882805 L8.20206532,12.1263678 L12.9653529,8.20554009 C13.3917607,7.85454895 13.4528981,7.22434254 13.1019069,6.79793468 C12.7509158,6.37152682 12.1207094,6.31038949 11.6943015,6.66138064 L11.6943015,6.66138064 Z" id="Path-380" fill="#E18769"></path>
                                </g>
                            </g>
                        </g>
                    </g>
                </g>
            </g>
        </g>
    </g>
</svg>