<?xml version="1.0" encoding="utf-8"?>
<!-- Generator: Adobe Illustrator 19.2.1, SVG Export Plug-In . SVG Version: 6.00 Build 0)  -->
<svg version="1.1" id="Layer_1" xmlns="http://www.w3.org/2000/svg" xmlns:xlink="http://www.w3.org/1999/xlink" x="0px" y="0px"
	 viewBox="0 0 1009.4 362.5" style="enable-background:new 0 0 1009.4 362.5;" xml:space="preserve">
<style type="text/css">
	.st0{fill:none;stroke:#9AEFDD;stroke-linecap:round;stroke-linejoin:round;stroke-miterlimit:10;}
	.st1{fill:#222222;stroke:#EBCA7D;stroke-linecap:round;stroke-linejoin:round;stroke-miterlimit:10;}
	.st2{fill:none;stroke:#EBCA7D;stroke-linecap:round;stroke-linejoin:round;stroke-miterlimit:10;}
	.st3{fill:#222222;stroke:#FFFFFF;stroke-linecap:round;stroke-linejoin:round;stroke-miterlimit:10;}
	.st4{fill:#EBCA7D;}
	.st5{fill:#FFFFFF;stroke:#EBCA7D;stroke-linecap:round;stroke-linejoin:round;stroke-miterlimit:10;}
	.st6{fill:#222222;stroke:#9AEFDD;stroke-linecap:round;stroke-linejoin:round;stroke-miterlimit:10;}
	.st7{fill:#222222;stroke:#75F298;stroke-linecap:round;stroke-linejoin:round;stroke-miterlimit:10;}
	.st8{fill:none;stroke:#75F298;stroke-linecap:round;stroke-linejoin:round;stroke-miterlimit:10;}
	.st9{fill:#222222;stroke:#BF8FED;stroke-linecap:round;stroke-linejoin:round;stroke-miterlimit:10;}
	.st10{fill:none;stroke:#BF8FED;stroke-linecap:round;stroke-linejoin:round;stroke-miterlimit:10;}
	.st11{fill:#FFFFFF;stroke:#BF8FED;stroke-linecap:round;stroke-linejoin:round;stroke-miterlimit:10;}
	.st12{fill:#222222;stroke:#E877A6;stroke-linecap:round;stroke-linejoin:round;stroke-miterlimit:10;}
	.st13{fill:#222222;stroke:#9AEFDD;stroke-miterlimit:10;}
	.st14{fill:none;stroke:#E18769;stroke-linecap:round;stroke-linejoin:round;stroke-miterlimit:10;}
	.st15{fill:#222222;stroke:#E18769;stroke-linecap:round;stroke-linejoin:round;stroke-miterlimit:10;}
	.st16{fill:#E18769;}
	.st17{fill:#5D5D5D;}
	.st18{fill:none;stroke:#FFFFFF;stroke-linecap:round;stroke-linejoin:round;stroke-miterlimit:10;}
</style>
<g>
	<line class="st0" x1="366.6" y1="225.3" x2="631.9" y2="225.3"/>
	<rect x="380.1" y="100.2" class="st0" width="238.9" height="113.6"/>
	<path class="st0" d="M437.2,270.4h16.2c12,0,21.7-9.7,21.7-21.7v-1.4"/>
	<path class="st0" d="M561.6,270.4h-16.2c-12,0-21.7-9.7-21.7-21.7v-1.4"/>
	<path class="st0" d="M624.9,247h-251c-4,0-7.3-3.3-7.3-7.3V94.7c0-4,3.3-7.3,7.3-7.3h251c4,0,7.3,3.3,7.3,7.3v145.1
		C632.1,243.8,628.9,247,624.9,247z"/>
	<circle class="st0" cx="499.5" cy="237.4" r="4.3"/>
	<line class="st0" x1="380.1" y1="103.3" x2="618.9" y2="103.3"/>
	<polyline class="st0" points="439.7,213.8 439.7,206.1 559.3,206.1 559.3,213.8 	"/>
	<rect x="437.2" y="270.4" class="st0" width="124.4" height="7.1"/>
	<line class="st0" x1="475" y1="251.4" x2="523.7" y2="251.4"/>
	<path class="st0" d="M499.2,232.8c0,0.1,0,0.2,0,0.3c0.8,0.1,1.7-0.2,2.3-0.8c0.6-0.6,0.9-1.5,0.8-2.3c-0.1,0-0.2,0-0.3,0
		C500.5,230,499.2,231.2,499.2,232.8z"/>
</g>
<g>
	
		<rect x="608.8" y="10.1" transform="matrix(0.6141 -0.7892 0.7892 0.6141 226.044 492.6408)" class="st1" width="15.9" height="10.2"/>
	<polyline class="st2" points="705.5,251.6 735.2,118.4 623.3,4.6 	"/>
	<circle class="st1" cx="704.1" cy="255.5" r="3.4"/>
	<ellipse transform="matrix(0.1825 -0.9832 0.9832 0.1825 503.065 618.3807)" class="st1" cx="623.4" cy="6.7" rx="6.2" ry="6.2"/>
	<path class="st1" d="M619.3,65.6c11.2-14.3,8.6-35-5.8-46.2c-14.3-11.2-35-8.6-46.2,5.8L619.3,65.6z"/>
	<line class="st1" x1="609.3" y1="58.4" x2="609.3" y2="68.3"/>
	<ellipse transform="matrix(0.1825 -0.9832 0.9832 0.1825 503.065 618.3807)" class="st1" cx="623.4" cy="6.7" rx="2.9" ry="2.9"/>
	<circle class="st1" cx="735.2" cy="118.4" r="7.4"/>
	<circle class="st1" cx="735.2" cy="118.4" r="4.1"/>
	<circle class="st1" cx="609.3" cy="70.1" r="1.3"/>
</g>
<rect x="0.5" y="277.4" class="st3" width="1008.4" height="6.7"/>
<path class="st3" d="M731.1,226.4c5.7,0,10.3,4.6,10.3,10.3c0-5.7,4.6-10.3,10.3-10.3c-5.7,0-10.3-4.6-10.3-10.3
	C741.4,221.7,736.8,226.4,731.1,226.4z"/>
<g>
	<line class="st0" x1="721" y1="209.5" x2="725.7" y2="214.2"/>
	<line class="st0" x1="725.7" y1="209.5" x2="721" y2="214.2"/>
</g>
<g>
	<line class="st0" x1="741.2" y1="162.7" x2="744" y2="165.4"/>
	<line class="st0" x1="744" y1="162.7" x2="741.2" y2="165.4"/>
</g>
<line class="st2" x1="904.1" y1="277.1" x2="766" y2="277.1"/>
<polyline class="st2" points="904.4,176.5 955.3,176.5 955.3,277.1 904.4,277.1 "/>
<path class="st1" d="M904.4,176.4h50.9v-17.7c0-14.1-11.4-25.4-25.4-25.4l0,0"/>
<path class="st2" d="M791.5,133.3L791.5,133.3c-14.1,0-25.4,11.4-25.4,25.4v17.7h37.3"/>
<rect x="763.8" y="264.1" class="st1" width="193.5" height="13.4"/>
<polyline class="st1" points="766,246.8 766,189.8 779.6,189.8 779.6,234.3 "/>
<circle class="st4" cx="772.8" cy="270.3" r="2.1"/>
<rect x="941.8" y="189.8" class="st1" width="13.6" height="74.3"/>
<circle class="st4" cx="897.7" cy="183.1" r="2.1"/>
<circle class="st4" cx="897.7" cy="169.9" r="2.1"/>
<circle class="st4" cx="948.5" cy="270.3" r="2.1"/>
<path class="st2" d="M791.5,133.3"/>
<line class="st2" x1="791.5" y1="133.3" x2="929.9" y2="133.3"/>
<line class="st5" x1="801.6" y1="259.8" x2="941.2" y2="259.8"/>
<g>
	<path class="st6" d="M821.9,258.9"/>
	<g>
		<polyline class="st6" points="768.3,261.3 751.6,260.8 751.2,277.5 799.9,277.4 802.7,228.8 786,228.3 785.5,245 		"/>
		<polyline class="st6" points="768.3,261.3 768.8,244.6 785.5,245 		"/>
		<line class="st6" x1="751.6" y1="260.8" x2="786" y2="228.3"/>
		<line class="st6" x1="751.2" y1="277.5" x2="802.7" y2="228.8"/>
		<polyline class="st0" points="768.3,261.3 799.9,277.4 785.5,245 		"/>
	</g>
</g>
<g>
	<path class="st7" d="M584.2,259.9c-0.3,2.7,0.9,5.6,3.3,7.5c2.5,1.9,5.5,2.3,8.1,1.3c0.3-2.7-0.9-5.6-3.3-7.5
		C589.8,259.3,586.7,258.9,584.2,259.9z"/>
	<line class="st7" x1="584.2" y1="259.9" x2="595.6" y2="268.7"/>
</g>
<g>
	<path class="st7" d="M575.5,292.1c7.1,3.3,15.8,2.9,23.2-1.8c7.3-4.8,11.2-12.7,11.1-20.5c-7.1-3.3-15.8-2.9-23.2,1.8
		C579.2,276.5,575.3,284.4,575.5,292.1z"/>
	<line class="st7" x1="575.5" y1="292.1" x2="609.8" y2="269.8"/>
	<polyline class="st8" points="594.4,292.5 598.2,277.3 582.8,274.6 	"/>
</g>
<g>
	<g>
		<path class="st9" d="M296,257.7v63.2c0,4.4,3.2,8.5,7.6,8.9c5.1,0.5,9.4-3.5,9.4-8.4v-4.6c0-13.3,10.6-24.2,23.8-24.7
			c3.9-0.1,7.9,2.5,8.6,6.3c0.9,5.1-3,9.5-7.9,9.3c-4.9-0.1-8.9,4.2-8.9,9.1v3.8c0,12.3-8.8,23.2-20.9,24.8
			c-14.7,1.9-27.3-9.6-27.3-23.9V258c0-3-2.5-5.5-5.5-5.5l0,0c-3,0-5.5,2.5-5.5,5.5v81.3c0,12.2-9.6,22.1-21.6,22.7
			c-4.4,0.2-8.6-2.9-8.9-7.3c-0.3-4.6,3.3-8.4,7.8-8.3c3.9,0,7-3.7,7-7.6v-81.2c0-2.8-2.3-5-5-5l0,0c-2.8,0-5,2.3-5,5v7.4
			c0,12.3-8.8,23.2-20.9,24.8c-14.7,1.9-27.3-9.6-27.3-23.9l0-36.6c0-4.9-3.9-9.3-8.9-9.1c-4.9,0.1-8.8-4.3-7.9-9.3
			c0.7-3.8,4.7-6.4,8.6-6.3c13.2,0.5,23.8,11.4,23.8,24.7v36.1c0,4.4,3.2,8.5,7.6,8.9c5.1,0.5,9.4-3.5,9.4-8.4v-15l0-2.4l0-38
			c0-25.7,20.1-47.7,45.8-48.2c26.2-0.5,47.5,20.6,47.5,46.6l0.2,42.3l0,1.7c0,4.4,3.2,8.5,7.6,8.9c5.1,0.5,9.4-3.5,9.4-8.4v-56.1
			c0-13.3,10.6-24.2,23.8-24.7c3.9-0.1,7.9,2.5,8.6,6.3c0.9,5.1-3,9.5-7.9,9.3c-4.9-0.1-8.9,4.2-8.9,9.1v55
			c0,11.4-7.5,21.9-18.5,24.6c-14.1,3.5-26.9-6.7-29.3-19.8c-0.5-2.5-2.5-4.4-5.1-4.4h0C298.3,252.5,296,254.8,296,257.7z"/>
		<path class="st10" d="M255.3,166.7c4.2,2.5,7,7,7,12.2c0,7.9-6.4,14.2-14.2,14.2c-5.7,0-10.6-3.4-12.9-8.2"/>
		<circle class="st10" cx="274.7" cy="178.3" r="3.9"/>
		<circle class="st10" cx="288.5" cy="190" r="7.7"/>
		<path class="st9" d="M303,227.3c0-1.6,1.3-2.8,2.8-2.8s2.8,1.3,2.8,2.8"/>
		<path class="st9" d="M240.9,227.3c0-1.6,1.3-2.8,2.8-2.8s2.8,1.3,2.8,2.8"/>
	</g>
	<line class="st9" x1="195.4" y1="232.6" x2="193.3" y2="232.6"/>
	<line class="st9" x1="195.4" y1="244.3" x2="193.3" y2="244.3"/>
	<line class="st9" x1="195.4" y1="257.2" x2="193.3" y2="257.2"/>
	<line class="st9" x1="272" y1="307.1" x2="269.9" y2="307.1"/>
	<line class="st9" x1="357.3" y1="222.8" x2="354.3" y2="222.8"/>
	<line class="st9" x1="357.3" y1="210.7" x2="354.3" y2="210.7"/>
	<line class="st9" x1="357.3" y1="234.7" x2="354.3" y2="234.7"/>
	<line class="st9" x1="272" y1="299.6" x2="269.9" y2="299.6"/>
	<line class="st9" x1="331.4" y1="322.8" x2="328.8" y2="322.8"/>
	<line class="st9" x1="326.9" y1="335.8" x2="325.4" y2="334.3"/>
	<line class="st9" x1="315.1" y1="345.9" x2="314.4" y2="343.9"/>
	<line class="st11" x1="258.1" y1="233.3" x2="292" y2="233.3"/>
	<path class="st10" d="M237,265.6c0,10-8.1,18.1-18.1,18.1"/>
	<path class="st10" d="M324.5,270.4c-4.8-1.7-8.6-5.4-10.5-10.1"/>
	<path class="st10" d="M295.6,336c-3.3-1.2-5.9-3.7-7.1-6.9"/>
	<line class="st9" x1="271.8" y1="238.2" x2="277.6" y2="238.2"/>
</g>
<g>
	<path class="st1" d="M683.3,251.8c0-24.2-20.7-43.8-46.3-43.8s-46.3,19.6-46.3,43.8c0,12.2,5.2,23.1,13.7,31.1
		c1.3,1.3,2.1,3,2.1,4.8l0,3.3c0,3.1,2.4,5.8,5.4,5.8c3.2,0.1,5.8-2.5,5.8-5.6v-2.7c0-1.5,1.2-2.7,2.7-2.7l0,0
		c1.5,0,2.7,1.2,2.7,2.7l0,17.8c0,3.1,2.4,5.8,5.4,5.8c3.2,0.1,5.8-2.5,5.8-5.6v-17.9c0-1.5,1.2-2.7,2.7-2.7l0,0
		c1.5,0,2.7,1.2,2.7,2.7v2.3c0,3.1,2.4,5.8,5.4,5.8c3.2,0.1,5.8-2.5,5.8-5.6v-2.4c0-1.5,1.2-2.7,2.7-2.7l0,0c1.5,0,2.7,1.2,2.7,2.7
		v6.5c0,3.1,2.4,5.8,5.4,5.8c3.2,0.1,5.8-2.5,5.8-5.6v-7.9c0-1.8,0.8-3.6,2.1-4.8C678.1,274.9,683.3,263.9,683.3,251.8z"/>
	<circle class="st1" cx="613.8" cy="269" r="4.5"/>
	<circle class="st1" cx="660.3" cy="269" r="4.5"/>
	<path class="st1" d="M642.6,271.2l-5.5-5.5c0,0-5.7,5.7-5.7,5.7c-1.4,1.4-1.3,3.9,0.5,5.1c1.3,0.9,3.2,0.6,4.4-0.5l0.8-0.8
		c0,0,0,0,0,0l1,1c1.4,1.4,3.9,1.3,5.1-0.5C644.1,274.3,643.8,272.4,642.6,271.2z"/>
</g>
<g>
	<g>
		<rect x="174.3" y="196.7" class="st1" width="32.2" height="7.6"/>
		<line class="st1" x1="178" y1="196.7" x2="178" y2="204.2"/>
		<line class="st1" x1="182.2" y1="196.7" x2="182.2" y2="204.2"/>
		<line class="st1" x1="186.3" y1="196.7" x2="186.3" y2="204.2"/>
		<line class="st1" x1="190.4" y1="196.7" x2="190.4" y2="204.2"/>
		<line class="st1" x1="194.5" y1="196.7" x2="194.5" y2="204.2"/>
		<line class="st1" x1="198.7" y1="196.7" x2="198.7" y2="204.2"/>
		<line class="st1" x1="202.8" y1="196.7" x2="202.8" y2="204.2"/>
	</g>
	<line class="st1" x1="166.8" y1="196.7" x2="213.7" y2="196.7"/>
	<rect x="170.8" y="189.4" class="st1" width="38.4" height="7.3"/>
	<rect x="173.2" y="142.9" class="st1" width="33.5" height="46.4"/>
	<rect x="176.8" y="113.9" class="st2" width="26.3" height="46.4"/>
	<line class="st1" x1="172.1" y1="113.9" x2="208" y2="113.9"/>
	<circle class="st1" cx="189.9" cy="121.6" r="2.8"/>
	<circle class="st1" cx="189.9" cy="132" r="2.8"/>
	<circle class="st2" cx="189.9" cy="142.4" r="2.8"/>
	<circle class="st1" cx="189.9" cy="152.8" r="2.8"/>
	<polygon class="st1" points="176.8,160.3 173.2,163.9 206.7,163.9 203.1,160.3 	"/>
</g>
<g>
	<path class="st7" d="M725.7,240.6c-5.9,0-11.9,3.1-15.4,8.8c-3.5,5.7-3.6,12.3-1,17.7c5.9,0,11.9-3.1,15.4-8.8
		C728.2,252.6,728.3,245.9,725.7,240.6z"/>
	<line class="st7" x1="725.7" y1="240.6" x2="709.3" y2="267"/>
	<polyline class="st8" points="712.5,246.4 714.8,258.1 726.3,255 	"/>
</g>
<g>
	<path class="st7" d="M740.6,262c-5.5-5.5-13.9-8.1-22.4-6.1c-8.5,2-14.9,8.1-17.4,15.5c5.5,5.5,13.9,8.1,22.4,6.1
		C731.8,275.5,738.1,269.4,740.6,262z"/>
	<line class="st7" x1="740.6" y1="262" x2="700.8" y2="271.3"/>
	<polyline class="st8" points="722.9,255.2 714.2,268.2 727.7,276 	"/>
</g>
<g>
	<path class="st7" d="M714.8,309.1c4.7-8.2,5.1-18.8,0-28.2c-5.1-9.3-14.2-14.8-23.6-15.4c-4.7,8.2-5.1,18.8,0,28.2
		C696.3,303.1,705.4,308.5,714.8,309.1z"/>
	<line class="st7" x1="714.8" y1="309.1" x2="691.2" y2="265.6"/>
	<polyline class="st8" points="717.1,286.3 699.2,280.3 694.4,298.5 	"/>
</g>
<g>
	<g>
		<path class="st12" d="M707.5,279.3c6.2,0,11.7-3.2,14.9-8c-3.2-4.8-8.7-8-14.9-8c-6.2,0-11.7,3.2-14.9,8
			C695.8,276.1,701.3,279.3,707.5,279.3z"/>
		<path class="st12" d="M682.5,279.3c6.2,0,11.7-3.2,14.9-8c-3.2-4.8-8.7-8-14.9-8c-6.2,0-11.7,3.2-14.9,8
			C670.8,276.1,676.3,279.3,682.5,279.3z"/>
		<path class="st12" d="M707.6,240.5c-2.7-2.7-7.1-2.7-9.8,0l-2.4,2.4l-2.4-2.4c-2.7-2.7-7.1-2.7-9.8,0c-2.7,2.7-2.7,7.1,0,9.8
			l12.2,12.2l0.1-0.1l0.1,0.1l12.2-12.2C710.3,247.6,710.3,243.2,707.6,240.5z"/>
		<path class="st12" d="M673.6,244.1l0,13.8c0,10.6,8.6,19.2,19.2,19.2h6.3v-7.5C699.1,255.5,687.7,244.1,673.6,244.1L673.6,244.1z"
			/>
		<path class="st12" d="M717.5,244.1v13.8c0,10.6-8.6,19.2-19.2,19.2H692v-7.5C692,255.5,703.4,244.1,717.5,244.1L717.5,244.1z"/>
	</g>
	<path class="st12" d="M691.3,238.7c1.6-1.9,4-3.3,4-3.3s2.8,1.3,4.2,3.8"/>
	<line class="st12" x1="692.8" y1="240.5" x2="701.8" y2="249.4"/>
</g>
<circle class="st3" cx="690.1" cy="182.2" r="2.3"/>
<g id="bubble-two">
	<path class="st0" d="M315.1,150.7c0.6,0,1.1,0.1,1.6,0.3c0.7,0.3,1.4,0.8,1.8,1.5"/>
	<circle class="st0" cx="315.1" cy="154.8" r="6.8"/>
</g>
<g>
	<path class="st12" d="M379,257.7c-2.6-12.6,5.6-25,18.2-27.6c12.6-2.6,25,5.6,27.6,18.2"/>
	<path class="st3" d="M424.9,249.1c2.6,12.6-5.6,25-18.2,27.6c-12.6,2.6-25-5.6-27.6-18.2"/>
	<path class="st6" d="M425.7,246l-18.7,3.8c-1.4-1.9-3.8-3-6.3-2.5c-2.5,0.5-4.3,2.4-4.8,4.7l-18.7,3.8l1,5.1l18.7-3.8
		c1.4,1.9,3.8,3,6.3,2.5c2.5-0.5,4.3-2.4,4.8-4.7l18.7-3.8L425.7,246z"/>
	
		<ellipse transform="matrix(0.9799 -0.1995 0.1995 0.9799 -42.4896 85.3007)" class="st13" cx="401.9" cy="253.4" rx="2.9" ry="2.9"/>
</g>
<g>
	<line class="st14" x1="871.9" y1="105.6" x2="813.5" y2="72.8"/>
	<line class="st14" x1="871.9" y1="105.6" x2="871.9" y2="39.4"/>
	<line class="st14" x1="817.7" y1="53.7" x2="852.8" y2="33.2"/>
	<line class="st14" x1="807.9" y1="105.9" x2="903.2" y2="50.1"/>
	<path class="st14" d="M890,119.1c2.5,4.2,1,9.6-3.2,12.1c-4.2,2.5-9.6,1-12.1-3.2"/>
	<line class="st14" x1="823.3" y1="22.6" x2="805.3" y2="117.1"/>
	<line class="st14" x1="823.3" y1="22.6" x2="914.3" y2="53.8"/>
	
		<rect x="845.3" y="21.5" transform="matrix(0.863 -0.5052 0.5052 0.863 83.5066 437.2278)" class="st15" width="5.1" height="86.3"/>
	<path class="st14" d="M878.7,117.4c-25.3,14.8-54.9,18.9-83.3,11.5l3.4-13.1c24.9,6.5,50.8,2.9,73-10.1c22.2-13,38-33.8,44.5-58.7
		l13.1,3.4C922.1,78.7,904.1,102.5,878.7,117.4z"/>
	<ellipse transform="matrix(0.863 -0.5052 0.5052 0.863 101.3901 419.0174)" class="st15" cx="823.3" cy="22.6" rx="11" ry="11"/>
	<ellipse transform="matrix(0.863 -0.5052 0.5052 0.863 101.3901 419.0174)" class="st15" cx="823.3" cy="22.6" rx="6.3" ry="6.3"/>
	<path class="st14" d="M887.5,120.9c1.6,2.7,0.7,6.3-2.1,7.9c-2.7,1.6-6.3,0.7-7.9-2.1"/>
	<path class="st15" d="M834.3,28.3l-23.4-6.1c-1.5-0.4-2.3-1.9-1.9-3.3v0c0.4-1.5,1.9-2.3,3.3-1.9l23.4,6.1c1.5,0.4,2.3,1.9,1.9,3.3
		v0C837.2,27.8,835.7,28.6,834.3,28.3z"/>
	
		<rect x="862.8" y="100.2" transform="matrix(0.863 -0.5052 0.5052 0.863 63.0592 458.0486)" class="st15" width="26.4" height="25.1"/>
	
		<rect x="867.7" y="111.2" transform="matrix(0.863 -0.5052 0.5052 0.863 62.7312 458.3826)" class="st14" width="17.6" height="4.8"/>
	<g>
		<path class="st14" d="M859.6,122l1.4,3.7 M894.4,106.1l-2.6-3 M852.3,124.4l1.1,3.8 M900.3,100.6l-2.8-2.8 M844.7,126.2l0.8,3.8
			 M905.8,94.7l-3-2.6 M910.8,88.5l-3.1-2.3 M837.1,127.5l0.5,3.9 M829.3,128.1l0.2,3.9 M915.3,81.8l-3.3-2.1 M821.6,128.2l-0.1,3.9
			 M919.4,74.8l-3.5-1.8 M813.8,127.7l-0.4,3.9 M922.8,67.6l-3.6-1.6 M806.2,126.6l-0.7,3.9 M925.8,60.1l-3.7-1.3"/>
	</g>
	<ellipse transform="matrix(0.863 -0.5052 0.5052 0.863 74.8526 417.5424)" class="st15" cx="807.3" cy="70.8" rx="10" ry="10"/>
	<line class="st14" x1="876.7" y1="113.8" x2="877.7" y2="115.6"/>
	<ellipse transform="matrix(0.863 -0.5052 0.5052 0.863 74.8526 417.5424)" class="st14" cx="807.3" cy="70.8" rx="6.6" ry="6.6"/>
	<line class="st14" x1="801" y1="69.1" x2="813.6" y2="72.4"/>
	<g>
		
			<rect x="829.8" y="32.8" transform="matrix(0.863 -0.5052 0.5052 0.863 95.1265 434.0661)" class="st15" width="36.1" height="17.6"/>
		
			<rect x="862.2" y="21.2" transform="matrix(0.863 -0.5052 0.5052 0.863 105.2116 443.9704)" class="st15" width="17.9" height="13.6"/>
		
			<rect x="828.2" y="41.2" transform="matrix(0.863 -0.5052 0.5052 0.863 87.5663 426.6416)" class="st15" width="4.4" height="21.3"/>
		<line class="st15" x1="830.6" y1="41.5" x2="839.5" y2="56.8"/>
		<line class="st15" x1="863" y1="25" x2="869.3" y2="35.7"/>
		
			<rect x="877.7" y="14.3" transform="matrix(0.863 -0.5052 0.5052 0.863 111.7063 450.3485)" class="st15" width="16.9" height="9.9"/>
		<line class="st15" x1="879.3" y1="17.5" x2="883.9" y2="25.4"/>
		<line class="st15" x1="888.2" y1="12.3" x2="893.2" y2="20.8"/>
		
			<rect x="893.3" y="8.3" transform="matrix(0.863 -0.5052 0.5052 0.863 115.3913 454.0919)" class="st15" width="3.2" height="12"/>
	</g>
	<ellipse transform="matrix(0.863 -0.5052 0.5052 0.863 99.3674 438.231)" class="st16" cx="857.7" cy="35.9" rx="1.6" ry="1.6"/>
	<ellipse transform="matrix(0.863 -0.5052 0.5052 0.863 91.3833 430.3901)" class="st16" cx="839.2" cy="46.7" rx="1.6" ry="1.6"/>
	<line class="st15" x1="817.7" y1="13.1" x2="816.5" y2="11"/>
	<line class="st15" x1="814.8" y1="10.8" x2="817.1" y2="9.4"/>
	<line class="st14" x1="869.1" y1="127.1" x2="865.9" y2="128.9"/>
	<line class="st14" x1="865.1" y1="127.6" x2="866.8" y2="130.4"/>
	<line class="st14" x1="892" y1="113.7" x2="893.8" y2="112.7"/>
</g>
<g>
	<g>
		<polyline class="st3" points="999.7,259.6 996.3,277.4 979.2,277.4 975.8,259.6 		"/>
		<path class="st7" d="M984.9,239.1c6.3-8.4-1.9-17.4-1.9-17.4l0-0.1C983.1,221.6,976.9,232.2,984.9,239.1L984.9,239.1z"/>
		<path class="st7" d="M986.4,253.9c17.3-9.8,9.8-31.6,9.8-31.6l0-0.1c0,0-18.5,13.8-9.8,31.6L986.4,253.9z"/>
		<path class="st7" d="M987.2,253.8c6-14.9-9.7-24.8-9.7-24.8l0-0.1C977.5,228.9,972.7,246.8,987.2,253.8L987.2,253.8z"/>
		<rect x="973.2" y="252.6" class="st3" width="29.2" height="6.5"/>
	</g>
</g>
<path class="st10" d="M263,340.9c0,1.4-0.2,2.7-0.6,4c-1.3,4.3-4.5,7.7-8.6,9.3"/>
<g id="bubble-three">
	<circle class="st0" cx="328.7" cy="133.2" r="8.4"/>
	<path class="st0" d="M328.7,127.4c1.6,0,3.1,0.7,4.1,1.7"/>
	<path class="st0" d="M334.1,131.1c0.2,0.6,0.4,1.3,0.4,2.1"/>
</g>
<rect x="763.9" y="176.4" class="st1" width="193.4" height="13.4"/>
<rect x="763.9" y="163.2" class="st1" width="193.4" height="13.4"/>
<g id="bubble-one">
	<circle class="st0" cx="324.5" cy="172.4" r="1.8"/>
</g>
<g>
	
		<rect x="57" y="220.7" transform="matrix(-1 -4.488777e-11 4.488777e-11 -1 189.8708 472.7123)" class="st3" width="75.8" height="31.4"/>
	<line class="st3" x1="132.9" y1="239.2" x2="57.3" y2="239.2"/>
	<line class="st3" x1="132.9" y1="243.2" x2="57.3" y2="243.2"/>
	<line class="st3" x1="132.2" y1="247" x2="57.7" y2="247"/>
	<line class="st3" x1="132.9" y1="231.1" x2="57.3" y2="231.1"/>
	<line class="st3" x1="132.9" y1="235.1" x2="57.3" y2="235.1"/>
	<line class="st3" x1="132.9" y1="226.7" x2="57.3" y2="226.7"/>
	<line class="st6" x1="132.9" y1="222.6" x2="58.4" y2="222.6"/>
	<path class="st6" d="M132.8,250.6H55.4c0,0-0.1,0-0.1,0.1v3.9c0,0,0,0.1,0.1,0.1h78.1h0.1c0,1,0.8,1.9,1.9,1.9s1.9-0.8,1.9-1.9v0
		v-35.8c0-1-0.7-1.9-1.6-2c-1.2-0.2-2.1,0.7-2.2,1.8c0,0,0,0.1-0.1,0.1H55.5c0,0-0.1,0-0.1,0.1v3.9c0,0,0,0.1,0.1,0.1h77.3
		c0,0,0.1,0,0.1,0.1L132.8,250.6C132.8,250.6,132.8,250.6,132.8,250.6z"/>
</g>
<g>
	<g>
		<g>
			<path class="st17" d="M73.5,216.9c3.2,0,3.2-5,0-5C70.3,211.9,70.3,216.9,73.5,216.9L73.5,216.9z"/>
		</g>
	</g>
	<g>
		<g>
			<path class="st15" d="M150.1,217.7v-10.1c0-0.6-0.5-1-1-1h-3.9c-0.3,0-0.5,0.1-0.7,0.3l0,0c-0.4,0.4-1.1,0.4-1.5,0l0,0
				c-0.2-0.2-0.5-0.3-0.7-0.3h-18.3H72H53.7c-0.3,0-0.5,0.1-0.7,0.3l0,0c-0.4,0.4-1.1,0.4-1.5,0l0,0c-0.2-0.2-0.5-0.3-0.7-0.3h-3.9
				c-0.6,0-1,0.5-1,1v10.1c0,0.6,0.5,1,1,1h3.9c0.3,0,0.5-0.1,0.7-0.3v0c0.4-0.4,1.1-0.4,1.5,0v0c0.2,0.2,0.5,0.3,0.7,0.3H72h51.9
				h18.3c0.3,0,0.5-0.1,0.7-0.3v0c0.4-0.4,1.1-0.4,1.5,0v0c0.2,0.2,0.5,0.3,0.7,0.3h3.9C149.6,218.7,150.1,218.3,150.1,217.7z"/>
			<line class="st15" x1="143.6" y1="207.8" x2="143.6" y2="217.7"/>
			<line class="st15" x1="52.3" y1="217.5" x2="52.3" y2="207.6"/>
		</g>
	</g>
	<rect x="58.4" y="210.6" class="st15" width="48.4" height="3.2"/>
</g>
<g>
	<path class="st3" d="M120.9,134.4c-2.4,1.6-7.2,4.8-3.8,13.4c3,7.5-1,10.4-1.2,10.7"/>
	<path class="st3" d="M121.9,140c-1.2,1.8-1.9,3.7-0.3,8c1.8,4.8,0.5,7,0.5,7"/>
	<path class="st3" d="M112.4,146.5c0.8,1.8,2.8,6.5,0,8.4"/>
	<g>
		<path class="st3" d="M137,196v3c0,1.6-1.3,2.9-2.9,2.9h-33.1c-1.6,0-2.9-1.3-2.9-2.9v-36h39v11.6"/>
		<path class="st3" d="M130.3,206.5h-25.7c-1.2,0-2.2-1-2.2-2.2V202h30.1v2.3C132.5,205.5,131.5,206.5,130.3,206.5z"/>
		<line class="st3" x1="137" y1="178.8" x2="137" y2="191.5"/>
		<line class="st3" x1="97.9" y1="167.1" x2="137" y2="167.1"/>
		<path class="st18" d="M134.4,174.6h6.5c5.8,0,10.5,4.7,10.5,10.5s-4.7,10.5-10.5,10.5h-6.5"/>
		<path class="st18" d="M134.4,178.8h6.2c3.5,0,6.3,2.8,6.3,6.3c0,3.5-2.8,6.3-6.3,6.3h-6.3"/>
	</g>
</g>
<g>
	<g>
		
			<rect x="89.7" y="204.5" transform="matrix(4.488416e-11 -1 1 4.488416e-11 -165.0169 367.1219)" class="st12" width="22.8" height="123.1"/>
		
			<rect x="38.6" y="263.8" transform="matrix(4.491525e-11 -1 1 4.491525e-11 -215.1054 317.0334)" class="st12" width="24.7" height="4.6"/>
		
			<rect x="141.4" y="263.8" transform="matrix(4.495255e-11 -1 1 4.495255e-11 -112.3123 419.8265)" class="st12" width="24.7" height="4.6"/>
	</g>
	<polyline class="st12" points="95.9,270.5 89.7,266 95.9,261.4 	"/>
	<polyline class="st12" points="108.4,261.4 114.5,266 108.4,270.5 	"/>
	<line class="st12" x1="98.8" y1="272.6" x2="104.9" y2="259.5"/>
</g>
<line class="st2" x1="766" y1="176.5" x2="904.1" y2="176.5"/>
<circle class="st4" cx="772.8" cy="183.1" r="2.1"/>
<circle class="st4" cx="772.8" cy="169.9" r="2.1"/>
<circle class="st4" cx="948.5" cy="183.1" r="2.1"/>
<circle class="st4" cx="948.5" cy="169.9" r="2.1"/>
<circle class="st6" cx="903.9" cy="217" r="5"/>
<circle class="st6" cx="903.9" cy="227" r="5"/>
<circle class="st6" cx="903.9" cy="237.1" r="5"/>
<line class="st2" x1="881.9" y1="194.1" x2="941.8" y2="194.1"/>
<path class="st1" d="M891.6,190.1c0,16.2-13.1,29.3-29.3,29.3s-29.3-13.1-29.3-29.3"/>
<circle class="st4" cx="862.2" cy="213.5" r="2.1"/>
<circle class="st1" cx="862.4" cy="190" r="17.5"/>
<path class="st1" d="M866.6,187.2c0-2.4-2-4.4-4.4-4.4s-4.4,2-4.4,4.4c0,1.6,0.8,3,2.1,3.7v6.3h4.6V191
	C865.8,190.2,866.6,188.8,866.6,187.2z"/>
<line class="st2" x1="780.2" y1="194.1" x2="832.9" y2="194.1"/>
<circle class="st6" cx="903.9" cy="186.8" r="5"/>
<circle class="st6" cx="903.9" cy="196.8" r="5"/>
<circle class="st6" cx="903.9" cy="206.9" r="5"/>
<path class="st6" d="M908.9,176.8c0,2.7-2.2,5-5,5c-2.7,0-5-2.2-5-5"/>
<line class="st1" x1="894.5" y1="176.5" x2="912.9" y2="176.5"/>
<line class="st1" x1="766" y1="159.1" x2="954.7" y2="159.1"/>
<line class="st12" x1="942.2" y1="254.5" x2="949.3" y2="254.5"/>
<line class="st12" x1="916.2" y1="261.8" x2="909.1" y2="261.9"/>
<g>
	<polygon class="st12" points="909.1,261.9 922.3,239 940.3,238.9 949.3,254.5 936.1,277.4 918.1,277.4 	"/>
	<polygon class="st12" points="921.7,271.2 916.2,261.8 925.8,245.1 936.7,245.1 942.2,254.5 932.6,271.2 	"/>
	<line class="st12" x1="939.9" y1="239.7" x2="936.7" y2="245.1"/>
	<line class="st12" x1="932.6" y1="271.2" x2="936.1" y2="277.4"/>
	<line class="st12" x1="921.7" y1="271.2" x2="918.1" y2="277.4"/>
	<line class="st12" x1="922.3" y1="239" x2="925.8" y2="245.1"/>
</g>
<path class="st12" d="M950.8,229.1c4.4,0,8,3.6,8,8c0-4.4,3.6-8,8-8c-4.4,0-8-3.6-8-8C958.8,225.5,955.2,229.1,950.8,229.1z"/>
<path class="st3" d="M934.6,211.1c2.5,0,4.6,2,4.6,4.6c0-2.5,2-4.6,4.6-4.6c-2.5,0-4.6-2-4.6-4.6
	C939.1,209.1,937.1,211.1,934.6,211.1z"/>
<g>
	<line class="st12" x1="964.8" y1="203.4" x2="968.8" y2="207.4"/>
	<line class="st12" x1="968.8" y1="203.4" x2="964.8" y2="207.4"/>
</g>
<g>
	<path class="st12" d="M139.4,142.7l9.9,9.9c0,0,10.3-10.2,10.3-10.2c2.6-2.6,2.3-6.9-0.8-9.2c-2.4-1.7-5.8-1.2-7.9,0.9l-1.5,1.5
		c0,0-0.1,0-0.1,0l-1.7-1.7c-2.6-2.6-6.9-2.3-9.2,0.8C136.7,137.2,137.3,140.6,139.4,142.7z"/>
	<path class="st1" d="M156,137.8c2.5,0,4.6,2.1,4.6,4.6c0-2.5,2.1-4.6,4.6-4.6c-2.5,0-4.6-2.1-4.6-4.6
		C160.6,135.8,158.5,137.8,156,137.8z"/>
	<path class="st1" d="M135.1,144.3c3.2,0,5.8,2.6,5.8,5.8c0-3.2,2.6-5.8,5.8-5.8c-3.2,0-5.8-2.6-5.8-5.8
		C140.9,141.7,138.3,144.3,135.1,144.3z"/>
</g>
<path class="st6" d="M754.5,206.8c3.9,0,7.1,3.2,7.1,7.1c0-3.9,3.2-7.1,7.1-7.1c-3.9,0-7.1-3.2-7.1-7.1
	C761.6,203.6,758.4,206.8,754.5,206.8z"/>
</svg>
