<?xml version="1.0" encoding="utf-8"?>
<!-- Generator: Adobe Illustrator 19.2.1, SVG Export Plug-In . SVG Version: 6.00 Build 0)  -->
<svg version="1.1" id="Layer_1" xmlns="http://www.w3.org/2000/svg" xmlns:xlink="http://www.w3.org/1999/xlink" x="0px" y="0px"
	 viewBox="0 0 1224 454.1" style="enable-background:new 0 0 1224 454.1;" xml:space="preserve">
<style type="text/css">
	.st0{display:none;fill:#222222;}
	.st1{fill:none;stroke:#9AEFDD;stroke-linecap:round;stroke-linejoin:round;stroke-miterlimit:10;}
	.st2{fill:#222222;stroke:#EBCA7D;stroke-linecap:round;stroke-linejoin:round;stroke-miterlimit:10;}
	.st3{fill:none;stroke:#EBCA7D;stroke-linecap:round;stroke-linejoin:round;stroke-miterlimit:10;}
	.st4{fill:#222222;stroke:#FFFFFF;stroke-linecap:round;stroke-linejoin:round;stroke-miterlimit:10;}
	.st5{fill:#EBCA7D;}
	.st6{fill:#FFFFFF;stroke:#EBCA7D;stroke-linecap:round;stroke-linejoin:round;stroke-miterlimit:10;}
	.st7{fill:#222222;stroke:#9AEFDD;stroke-linecap:round;stroke-linejoin:round;stroke-miterlimit:10;}
	.st8{fill:#222222;stroke:#75F298;stroke-linecap:round;stroke-linejoin:round;stroke-miterlimit:10;}
	.st9{fill:none;stroke:#75F298;stroke-linecap:round;stroke-linejoin:round;stroke-miterlimit:10;}
	.st10{fill:#222222;stroke:#BF8FED;stroke-linecap:round;stroke-linejoin:round;stroke-miterlimit:10;}
	.st11{fill:none;stroke:#BF8FED;stroke-linecap:round;stroke-linejoin:round;stroke-miterlimit:10;}
	.st12{fill:#FFFFFF;stroke:#BF8FED;stroke-linecap:round;stroke-linejoin:round;stroke-miterlimit:10;}
	.st13{fill:#222222;stroke:#E877A6;stroke-linecap:round;stroke-linejoin:round;stroke-miterlimit:10;}
	.st14{fill:#222222;stroke:#9AEFDD;stroke-miterlimit:10;}
	.st15{fill:none;stroke:#E18769;stroke-linecap:round;stroke-linejoin:round;stroke-miterlimit:10;}
	.st16{fill:#222222;stroke:#E18769;stroke-linecap:round;stroke-linejoin:round;stroke-miterlimit:10;}
	.st17{fill:#E18769;}
	.st18{fill:#5D5D5D;}
	.st19{fill:none;stroke:#FFFFFF;stroke-linecap:round;stroke-linejoin:round;stroke-miterlimit:10;}
</style>
<rect class="st0" width="1224" height="454.1"/>
<g>
	<line class="st1" x1="461.9" y1="272.8" x2="727.2" y2="272.8"/>
	<rect x="475.3" y="147.7" class="st1" width="238.9" height="113.6"/>
	<path class="st1" d="M532.5,317.9h16.2c12,0,21.7-9.7,21.7-21.7v-1.4"/>
	<path class="st1" d="M656.8,317.9h-16.2c-12,0-21.7-9.7-21.7-21.7v-1.4"/>
	<path class="st1" d="M720.1,294.5h-251c-4,0-7.3-3.3-7.3-7.3V142.1c0-4,3.3-7.3,7.3-7.3h251c4,0,7.3,3.3,7.3,7.3v145.1
		C727.4,291.2,724.2,294.5,720.1,294.5z"/>
	<circle class="st1" cx="594.8" cy="284.9" r="4.3"/>
	<line class="st1" x1="475.3" y1="150.8" x2="714.2" y2="150.8"/>
	<polyline class="st1" points="535,261.3 535,253.6 654.5,253.6 654.5,261.3 	"/>
	<rect x="532.5" y="317.9" class="st1" width="124.4" height="7.1"/>
	<line class="st1" x1="570.3" y1="298.8" x2="619" y2="298.8"/>
	<path class="st1" d="M594.5,280.3c0,0.1,0,0.2,0,0.3c0.8,0.1,1.7-0.2,2.3-0.8s0.9-1.5,0.8-2.3c-0.1,0-0.2,0-0.3,0
		C595.7,277.5,594.5,278.7,594.5,280.3z"/>
</g>
<g>
	
		<rect x="704.1" y="57.6" transform="matrix(0.6141 -0.7892 0.7892 0.6141 225.3319 586.156)" class="st2" width="15.9" height="10.2"/>
	<polyline class="st3" points="800.8,299.1 830.5,165.9 718.5,52.1 	"/>
	<circle class="st2" cx="799.4" cy="303" r="3.4"/>
	
		<ellipse transform="matrix(0.1825 -0.9832 0.9832 0.1825 534.2573 750.8685)" class="st2" cx="718.7" cy="54.1" rx="6.2" ry="6.2"/>
	<path class="st2" d="M714.5,113.1c11.2-14.3,8.6-35-5.8-46.2c-14.3-11.2-35-8.6-46.2,5.8L714.5,113.1z"/>
	<line class="st2" x1="704.6" y1="105.9" x2="704.6" y2="115.8"/>
	
		<ellipse transform="matrix(0.1825 -0.9832 0.9832 0.1825 534.2573 750.8685)" class="st2" cx="718.7" cy="54.1" rx="2.9" ry="2.9"/>
	<circle class="st2" cx="830.5" cy="165.9" r="7.4"/>
	<circle class="st2" cx="830.5" cy="165.9" r="4.1"/>
	<circle class="st2" cx="704.6" cy="117.6" r="1.3"/>
</g>
<rect x="95.8" y="324.9" class="st4" width="1008.4" height="6.7"/>
<path class="st4" d="M826.3,273.9c5.7,0,10.3,4.6,10.3,10.3c0-5.7,4.6-10.3,10.3-10.3c-5.7,0-10.3-4.6-10.3-10.3
	C836.7,269.2,832.1,273.9,826.3,273.9z"/>
<g>
	<line class="st1" x1="816.3" y1="257" x2="820.9" y2="261.7"/>
	<line class="st1" x1="820.9" y1="257" x2="816.3" y2="261.7"/>
</g>
<g>
	<line class="st1" x1="836.5" y1="210.2" x2="839.2" y2="212.9"/>
	<line class="st1" x1="839.2" y1="210.2" x2="836.5" y2="212.9"/>
</g>
<line class="st3" x1="999.4" y1="324.6" x2="861.3" y2="324.6"/>
<polyline class="st3" points="999.7,224 1050.6,224 1050.6,324.6 999.7,324.6 "/>
<path class="st2" d="M999.7,223.9h50.9v-17.7c0-14.1-11.4-25.4-25.4-25.4l0,0"/>
<path class="st3" d="M886.8,180.8L886.8,180.8c-14.1,0-25.4,11.4-25.4,25.4v17.7h37.3"/>
<rect x="859" y="311.5" class="st2" width="193.5" height="13.4"/>
<polyline class="st2" points="861.3,294.3 861.3,237.3 874.9,237.3 874.9,281.8 "/>
<circle class="st5" cx="868.1" cy="317.8" r="2.1"/>
<rect x="1037" y="237.3" class="st2" width="13.6" height="74.3"/>
<circle class="st5" cx="992.9" cy="230.6" r="2.1"/>
<circle class="st5" cx="992.9" cy="217.3" r="2.1"/>
<circle class="st5" cx="1043.8" cy="317.8" r="2.1"/>
<path class="st3" d="M886.8,180.8"/>
<line class="st3" x1="886.8" y1="180.8" x2="1025.2" y2="180.8"/>
<line class="st6" x1="896.8" y1="307.3" x2="1036.5" y2="307.3"/>
<g>
	<path class="st7" d="M917.1,306.4"/>
	<g>
		<polyline class="st7" points="863.6,308.7 846.9,308.3 846.4,325 895.2,324.9 897.9,276.3 881.2,275.8 880.8,292.5 		"/>
		<polyline class="st7" points="863.6,308.7 864.1,292 880.8,292.5 		"/>
		<line class="st7" x1="846.9" y1="308.3" x2="881.2" y2="275.8"/>
		<line class="st7" x1="846.4" y1="325" x2="897.9" y2="276.3"/>
		<polyline class="st1" points="863.6,308.7 895.2,324.9 880.8,292.5 		"/>
	</g>
</g>
<g>
	<path class="st8" d="M679.4,307.4c-0.3,2.7,0.9,5.6,3.3,7.5c2.5,1.9,5.5,2.3,8.1,1.3c0.3-2.7-0.9-5.6-3.3-7.5
		C685.1,306.8,682,306.4,679.4,307.4z"/>
	<line class="st8" x1="679.4" y1="307.4" x2="690.9" y2="316.2"/>
</g>
<g>
	<path class="st8" d="M670.8,339.6c7.1,3.3,15.8,2.9,23.2-1.8c7.3-4.8,11.2-12.7,11.1-20.5c-7.1-3.3-15.8-2.9-23.2,1.8
		S670.6,331.8,670.8,339.6z"/>
	<line class="st8" x1="670.8" y1="339.6" x2="705" y2="317.3"/>
	<polyline class="st9" points="689.7,340 693.5,324.8 678.1,322.1 	"/>
</g>
<g>
	<g>
		<path class="st10" d="M391.3,305.2v63.2c0,4.4,3.2,8.5,7.6,8.9c5.1,0.5,9.4-3.5,9.4-8.4v-4.6c0-13.3,10.6-24.2,23.8-24.7
			c3.9-0.1,7.9,2.5,8.6,6.3c0.9,5.1-3,9.5-7.9,9.3c-4.9-0.1-8.9,4.2-8.9,9.1l0,3.8c0,12.3-8.8,23.2-20.9,24.8
			c-14.7,1.9-27.3-9.6-27.3-23.9v-63.3c0-3-2.5-5.5-5.5-5.5h0c-3,0-5.5,2.5-5.5,5.5v81.3c0,12.2-9.6,22.1-21.6,22.7
			c-4.4,0.2-8.6-2.9-8.9-7.3c-0.3-4.6,3.3-8.4,7.8-8.3c3.9,0,7-3.7,7-7.6v-81.2c0-2.8-2.3-5-5-5l0,0c-2.8,0-5,2.3-5,5l0,7.4
			c0,12.3-8.8,23.2-20.9,24.8c-14.7,1.9-27.3-9.6-27.3-23.9v-36.6c0-4.9-3.9-9.3-8.9-9.1c-4.9,0.1-8.8-4.3-7.9-9.3
			c0.7-3.8,4.7-6.4,8.6-6.3c13.2,0.5,23.8,11.4,23.8,24.7v36.1c0,4.4,3.2,8.5,7.6,8.9c5.1,0.5,9.4-3.5,9.4-8.4v-15l0-2.4v-38
			c0-25.7,20.1-47.7,45.8-48.2c26.2-0.5,47.5,20.6,47.5,46.6l0.2,42.3l0,1.7c0,4.4,3.2,8.5,7.6,8.9c5.1,0.5,9.4-3.5,9.4-8.4v-56.1
			c0-13.3,10.6-24.2,23.8-24.7c3.9-0.1,7.9,2.5,8.6,6.3c0.9,5.1-3,9.5-7.9,9.3c-4.9-0.1-8.9,4.2-8.9,9.1v55
			c0,11.4-7.5,21.9-18.5,24.6c-14.1,3.5-26.9-6.7-29.3-19.8c-0.5-2.5-2.5-4.4-5.1-4.4h0C393.6,300,391.3,302.3,391.3,305.2z"/>
		<path class="st11" d="M350.6,214.2c4.2,2.5,7,7,7,12.2c0,7.9-6.4,14.2-14.2,14.2c-5.7,0-10.6-3.4-12.9-8.2"/>
		<circle class="st11" cx="369.9" cy="225.8" r="3.9"/>
		<circle class="st11" cx="383.7" cy="237.4" r="7.7"/>
		<path class="st10" d="M398.2,274.8c0-1.6,1.3-2.8,2.8-2.8s2.8,1.3,2.8,2.8"/>
		<path class="st10" d="M336.2,274.8c0-1.6,1.3-2.8,2.8-2.8s2.8,1.3,2.8,2.8"/>
	</g>
	<line class="st10" x1="290.7" y1="280" x2="288.6" y2="280"/>
	<line class="st10" x1="290.7" y1="291.8" x2="288.6" y2="291.8"/>
	<line class="st10" x1="290.7" y1="304.6" x2="288.6" y2="304.6"/>
	<line class="st10" x1="367.2" y1="354.5" x2="365.1" y2="354.5"/>
	<line class="st10" x1="452.6" y1="270.3" x2="449.6" y2="270.3"/>
	<line class="st10" x1="452.6" y1="258.2" x2="449.6" y2="258.2"/>
	<line class="st10" x1="452.6" y1="282.2" x2="449.6" y2="282.2"/>
	<line class="st10" x1="367.2" y1="347" x2="365.1" y2="347"/>
	<line class="st10" x1="426.7" y1="370.3" x2="424.1" y2="370.3"/>
	<line class="st10" x1="422.2" y1="383.3" x2="420.7" y2="381.8"/>
	<line class="st10" x1="410.3" y1="393.4" x2="409.7" y2="391.4"/>
	<line class="st12" x1="353.3" y1="280.8" x2="387.3" y2="280.8"/>
	<path class="st11" d="M332.3,313.1c0,10-8.1,18.1-18.1,18.1"/>
	<path class="st11" d="M419.7,317.9c-4.8-1.7-8.6-5.4-10.5-10.1"/>
	<path class="st11" d="M390.8,383.5c-3.3-1.2-5.9-3.7-7.1-6.9"/>
	<line class="st10" x1="367" y1="285.7" x2="372.8" y2="285.7"/>
</g>
<g>
	<path class="st2" d="M778.6,299.3c0-24.2-20.7-43.8-46.3-43.8S686,275.1,686,299.3c0,12.2,5.2,23.1,13.7,31.1
		c1.3,1.3,2.1,3,2.1,4.8v3.3c0,3.1,2.4,5.8,5.4,5.8c3.2,0.1,5.8-2.5,5.8-5.6v-2.7c0-1.5,1.2-2.7,2.7-2.7l0,0c1.5,0,2.7,1.2,2.7,2.7
		v17.8c0,3.1,2.4,5.8,5.4,5.8c3.2,0.1,5.8-2.5,5.8-5.6v-17.9c0-1.5,1.2-2.7,2.7-2.7l0,0c1.5,0,2.7,1.2,2.7,2.7v2.3
		c0,3.1,2.4,5.8,5.4,5.8c3.2,0.1,5.8-2.5,5.8-5.6v-2.4c0-1.5,1.2-2.7,2.7-2.7l0,0c1.5,0,2.7,1.2,2.7,2.7v6.5c0,3.1,2.4,5.8,5.4,5.8
		c3.2,0.1,5.8-2.5,5.8-5.6v-7.9c0-1.8,0.8-3.6,2.1-4.8C773.3,322.4,778.6,311.4,778.6,299.3z"/>
	<circle class="st2" cx="709.1" cy="316.5" r="4.5"/>
	<circle class="st2" cx="755.5" cy="316.5" r="4.5"/>
	<path class="st2" d="M737.9,318.7l-5.5-5.5c0,0-5.7,5.7-5.7,5.7c-1.4,1.4-1.3,3.9,0.5,5.1c1.3,0.9,3.2,0.6,4.4-0.5l0.8-0.8
		c0,0,0,0,0,0l1,1c1.4,1.4,3.9,1.3,5.1-0.5C739.3,321.8,739,319.9,737.9,318.7z"/>
</g>
<g>
	<g>
		<rect x="269.6" y="244.1" class="st2" width="32.2" height="7.6"/>
		<line class="st2" x1="273.3" y1="244.1" x2="273.3" y2="251.7"/>
		<line class="st2" x1="277.4" y1="244.1" x2="277.4" y2="251.7"/>
		<line class="st2" x1="281.6" y1="244.1" x2="281.6" y2="251.7"/>
		<line class="st2" x1="285.7" y1="244.1" x2="285.7" y2="251.7"/>
		<line class="st2" x1="289.8" y1="244.1" x2="289.8" y2="251.7"/>
		<line class="st2" x1="293.9" y1="244.1" x2="293.9" y2="251.7"/>
		<line class="st2" x1="298" y1="244.1" x2="298" y2="251.7"/>
	</g>
	<line class="st2" x1="262.1" y1="244.1" x2="309" y2="244.1"/>
	<rect x="266" y="236.8" class="st2" width="38.4" height="7.3"/>
	<rect x="268.5" y="190.4" class="st2" width="33.5" height="46.4"/>
	<rect x="272" y="161.3" class="st3" width="26.3" height="46.4"/>
	<line class="st2" x1="267.3" y1="161.3" x2="303.2" y2="161.3"/>
	<circle class="st2" cx="285.2" cy="169.1" r="2.8"/>
	<circle class="st2" cx="285.2" cy="179.5" r="2.8"/>
	<circle class="st3" cx="285.2" cy="189.9" r="2.8"/>
	<circle class="st2" cx="285.2" cy="200.3" r="2.8"/>
	<polygon class="st2" points="272,207.8 268.5,211.4 301.9,211.4 298.4,207.8 	"/>
</g>
<g>
	<path class="st8" d="M820.9,288c-5.9,0-11.9,3.1-15.4,8.8c-3.5,5.7-3.6,12.3-1,17.7c5.9,0,11.9-3.1,15.4-8.8
		C823.4,300,823.6,293.4,820.9,288z"/>
	<line class="st8" x1="820.9" y1="288" x2="804.6" y2="314.5"/>
	<polyline class="st9" points="807.8,293.9 810.1,305.6 821.6,302.5 	"/>
</g>
<g>
	<path class="st8" d="M835.9,309.5c-5.5-5.5-13.9-8.1-22.4-6.1c-8.5,2-14.9,8.1-17.4,15.5c5.5,5.5,13.9,8.1,22.4,6.1
		S833.4,316.8,835.9,309.5z"/>
	<line class="st8" x1="835.9" y1="309.5" x2="796.1" y2="318.8"/>
	<polyline class="st9" points="818.2,302.7 809.5,315.7 823,323.5 	"/>
</g>
<g>
	<path class="st8" d="M810.1,356.6c4.7-8.2,5.1-18.8,0-28.2s-14.2-14.8-23.6-15.4c-4.7,8.2-5.1,18.8,0,28.2S800.7,356,810.1,356.6z"
		/>
	<line class="st8" x1="810.1" y1="356.6" x2="786.5" y2="313.1"/>
	<polyline class="st9" points="812.4,333.8 794.4,327.8 789.7,346 	"/>
</g>
<g>
	<g>
		<path class="st13" d="M802.8,326.8c6.2,0,11.7-3.2,14.9-8c-3.2-4.8-8.7-8-14.9-8c-6.2,0-11.7,3.2-14.9,8
			C791.1,323.6,796.6,326.8,802.8,326.8z"/>
		<path class="st13" d="M777.8,326.8c6.2,0,11.7-3.2,14.9-8c-3.2-4.8-8.7-8-14.9-8c-6.2,0-11.7,3.2-14.9,8
			C766.1,323.6,771.6,326.8,777.8,326.8z"/>
		<path class="st13" d="M802.8,287.9c-2.7-2.7-7.1-2.7-9.8,0l-2.4,2.4l-2.4-2.4c-2.7-2.7-7.1-2.7-9.8,0c-2.7,2.7-2.7,7.1,0,9.8
			l12.2,12.2l0.1-0.1l0.1,0.1l12.2-12.2C805.5,295.1,805.5,290.7,802.8,287.9z"/>
		<path class="st13" d="M768.8,291.6v13.8c0,10.6,8.6,19.2,19.2,19.2h6.3v-7.5C794.3,303,782.9,291.6,768.8,291.6L768.8,291.6z"/>
		<path class="st13" d="M812.8,291.6v13.8c0,10.6-8.6,19.2-19.2,19.2h-6.3v-7.5C787.3,303,798.7,291.6,812.8,291.6L812.8,291.6z"/>
	</g>
	<path class="st13" d="M786.6,286.2c1.6-1.9,4-3.3,4-3.3s2.8,1.3,4.2,3.8"/>
	<line class="st13" x1="788.1" y1="288" x2="797" y2="296.9"/>
</g>
<circle class="st4" cx="785.4" cy="229.7" r="2.3"/>
<g id="bubble-two">
	<path class="st1" d="M410.3,198.2c0.6,0,1.1,0.1,1.6,0.3c0.7,0.3,1.4,0.8,1.8,1.5"/>
	<circle class="st1" cx="410.3" cy="202.3" r="6.8"/>
</g>
<g>
	<path class="st13" d="M474.2,305.2c-2.6-12.6,5.6-25,18.2-27.6c12.6-2.6,25,5.6,27.6,18.2"/>
	<path class="st4" d="M520.2,296.6c2.6,12.6-5.6,25-18.2,27.6c-12.6,2.6-25-5.6-27.6-18.2"/>
	<path class="st7" d="M520.9,293.4l-18.7,3.8c-1.4-1.9-3.8-3-6.3-2.5c-2.5,0.5-4.3,2.4-4.8,4.7l-18.7,3.8l1,5.1l18.7-3.8
		c1.4,1.9,3.8,3,6.3,2.5s4.3-2.4,4.8-4.7l18.7-3.8L520.9,293.4z"/>
	
		<ellipse transform="matrix(0.9799 -0.1995 0.1995 0.9799 -50.0491 105.2664)" class="st14" cx="497.2" cy="300.9" rx="2.9" ry="2.9"/>
</g>
<g>
	<line class="st15" x1="967.2" y1="153.1" x2="908.7" y2="120.3"/>
	<line class="st15" x1="967.2" y1="153.1" x2="967.2" y2="86.8"/>
	<line class="st15" x1="913" y1="101.2" x2="948.1" y2="80.7"/>
	<line class="st15" x1="903.1" y1="153.4" x2="998.4" y2="97.6"/>
	<path class="st15" d="M985.3,166.6c2.5,4.2,1,9.6-3.2,12.1c-4.2,2.5-9.6,1-12.1-3.2"/>
	<line class="st15" x1="918.5" y1="70.1" x2="900.5" y2="164.6"/>
	<line class="st15" x1="918.5" y1="70.1" x2="1009.6" y2="101.3"/>
	<rect x="940.6" y="69" transform="matrix(0.863 -0.5052 0.5052 0.863 72.5688 491.8661)" class="st16" width="5.1" height="86.3"/>
	<path class="st15" d="M974,164.8c-25.3,14.8-54.9,18.9-83.3,11.5l3.4-13.1c24.9,6.5,50.8,2.9,73-10.1c22.2-13,38-33.8,44.5-58.7
		l13.1,3.4C1017.4,126.2,999.3,150,974,164.8z"/>
	<ellipse transform="matrix(0.863 -0.5052 0.5052 0.863 90.4523 473.6557)" class="st16" cx="918.5" cy="70.1" rx="11" ry="11"/>
	<ellipse transform="matrix(0.863 -0.5052 0.5052 0.863 90.4523 473.6557)" class="st16" cx="918.5" cy="70.1" rx="6.3" ry="6.3"/>
	<path class="st15" d="M982.8,168.4c1.6,2.7,0.7,6.3-2.1,7.9c-2.7,1.6-6.3,0.7-7.9-2.1"/>
	<path class="st16" d="M929.5,75.7l-23.4-6.1c-1.5-0.4-2.3-1.9-1.9-3.3l0,0c0.4-1.5,1.9-2.3,3.3-1.9l23.4,6.1
		c1.5,0.4,2.3,1.9,1.9,3.3v0C932.5,75.3,931,76.1,929.5,75.7z"/>
	
		<rect x="958.1" y="147.7" transform="matrix(0.863 -0.5052 0.5052 0.863 52.1215 512.687)" class="st16" width="26.4" height="25.1"/>
	
		<rect x="963" y="158.6" transform="matrix(0.863 -0.5052 0.5052 0.863 51.7935 513.0209)" class="st15" width="17.6" height="4.8"/>
	<g>
		<path class="st15" d="M954.9,169.5l1.4,3.7 M989.7,153.6l-2.6-3 M947.5,171.9l1.1,3.8 M995.6,148.1l-2.8-2.8 M940,173.7l0.8,3.8
			 M1001.1,142.2l-3-2.6 M1006.1,135.9l-3.1-2.3 M932.3,174.9l0.5,3.9 M924.6,175.6l0.2,3.9 M1010.6,129.3l-3.3-2.1 M916.9,175.7
			l-0.1,3.9 M1014.6,122.3l-3.5-1.8 M909.1,175.2l-0.4,3.9 M1018.1,115l-3.6-1.6 M901.4,174.1l-0.7,3.9 M1021,107.5l-3.7-1.3"/>
	</g>
	<ellipse transform="matrix(0.863 -0.5052 0.5052 0.863 63.9149 472.1807)" class="st16" cx="902.5" cy="118.2" rx="10" ry="10"/>
	<line class="st15" x1="971.9" y1="161.3" x2="973" y2="163.1"/>
	<ellipse transform="matrix(0.863 -0.5052 0.5052 0.863 63.9149 472.1807)" class="st15" cx="902.5" cy="118.2" rx="6.6" ry="6.6"/>
	<line class="st15" x1="896.2" y1="116.6" x2="908.9" y2="119.9"/>
	<g>
		
			<rect x="925.1" y="80.3" transform="matrix(0.863 -0.5052 0.5052 0.863 84.1888 488.7045)" class="st16" width="36.1" height="17.6"/>
		
			<rect x="957.5" y="68.7" transform="matrix(0.863 -0.5052 0.5052 0.863 94.2739 498.6087)" class="st16" width="17.9" height="13.6"/>
		
			<rect x="923.5" y="88.7" transform="matrix(0.863 -0.5052 0.5052 0.863 76.6286 481.2799)" class="st16" width="4.4" height="21.3"/>
		<line class="st16" x1="925.9" y1="89" x2="934.8" y2="104.3"/>
		<line class="st16" x1="958.2" y1="72.4" x2="964.5" y2="83.2"/>
		
			<rect x="973" y="61.8" transform="matrix(0.863 -0.5052 0.5052 0.863 100.7685 504.9868)" class="st16" width="16.9" height="9.9"/>
		<line class="st16" x1="974.6" y1="65" x2="979.2" y2="72.9"/>
		<line class="st16" x1="983.5" y1="59.8" x2="988.4" y2="68.3"/>
		
			<rect x="988.6" y="55.8" transform="matrix(0.863 -0.5052 0.5052 0.863 104.4536 508.7302)" class="st16" width="3.2" height="12"/>
	</g>
	<ellipse transform="matrix(0.863 -0.5052 0.5052 0.863 88.4296 492.8693)" class="st17" cx="952.9" cy="83.4" rx="1.6" ry="1.6"/>
	<ellipse transform="matrix(0.863 -0.5052 0.5052 0.863 80.4456 485.0284)" class="st17" cx="934.5" cy="94.2" rx="1.6" ry="1.6"/>
	<line class="st16" x1="913" y1="60.6" x2="911.7" y2="58.4"/>
	<line class="st16" x1="910.1" y1="58.3" x2="912.4" y2="56.9"/>
	<line class="st15" x1="964.4" y1="174.5" x2="961.2" y2="176.4"/>
	<line class="st15" x1="960.4" y1="175" x2="962" y2="177.9"/>
	<line class="st15" x1="987.2" y1="161.2" x2="989.1" y2="160.1"/>
</g>
<g>
	<g>
		<polyline class="st4" points="1095,307.1 1091.6,324.9 1074.5,324.9 1071.1,307.1 		"/>
		<path class="st8" d="M1080.2,286.6c6.3-8.4-1.9-17.4-1.9-17.4l0-0.1C1078.3,269.1,1072.2,279.7,1080.2,286.6L1080.2,286.6z"/>
		<path class="st8" d="M1081.7,301.4c17.3-9.8,9.8-31.6,9.8-31.6l0-0.1c0,0-18.5,13.8-9.8,31.6L1081.7,301.4z"/>
		<path class="st8" d="M1082.5,301.3c6-14.9-9.7-24.8-9.7-24.8l0-0.1C1072.8,276.3,1068,294.3,1082.5,301.3L1082.5,301.3z"/>
		<rect x="1068.4" y="300.1" class="st4" width="29.2" height="6.5"/>
	</g>
</g>
<path class="st11" d="M358.3,388.4c0,1.4-0.2,2.7-0.6,4c-1.3,4.3-4.5,7.7-8.6,9.3"/>
<g id="bubble-three">
	<circle class="st1" cx="424" cy="180.6" r="8.4"/>
	<path class="st1" d="M424,174.9c1.6,0,3.1,0.7,4.1,1.7"/>
	<path class="st1" d="M429.4,178.6c0.2,0.6,0.4,1.3,0.4,2.1"/>
</g>
<rect x="859.2" y="223.9" class="st2" width="193.4" height="13.4"/>
<rect x="859.2" y="210.7" class="st2" width="193.4" height="13.4"/>
<g id="bubble-one">
	<circle class="st1" cx="419.7" cy="219.9" r="1.8"/>
</g>
<g>
	
		<rect x="152.3" y="268.1" transform="matrix(-1 -4.488777e-11 4.488777e-11 -1 380.4127 567.6837)" class="st4" width="75.8" height="31.4"/>
	<line class="st4" x1="228.2" y1="286.7" x2="152.6" y2="286.7"/>
	<line class="st4" x1="228.2" y1="290.7" x2="152.6" y2="290.7"/>
	<line class="st4" x1="227.4" y1="294.5" x2="153" y2="294.5"/>
	<line class="st4" x1="228.2" y1="278.6" x2="152.6" y2="278.6"/>
	<line class="st4" x1="228.2" y1="282.6" x2="152.6" y2="282.6"/>
	<line class="st4" x1="228.2" y1="274.2" x2="152.6" y2="274.2"/>
	<line class="st7" x1="228.2" y1="270.1" x2="153.7" y2="270.1"/>
	<path class="st7" d="M228,298.1h-77.4c0,0-0.1,0-0.1,0.1v3.9c0,0,0,0.1,0.1,0.1h78.1h0.1c0,1,0.8,1.9,1.9,1.9s1.9-0.8,1.9-1.9v0
		v-35.8c0-1-0.7-1.9-1.6-2c-1.2-0.2-2.1,0.7-2.2,1.8c0,0,0,0.1-0.1,0.1h-78.1c0,0-0.1,0-0.1,0.1v3.9c0,0,0,0.1,0.1,0.1H228
		c0,0,0.1,0,0.1,0.1L228,298.1C228.1,298.1,228.1,298.1,228,298.1z"/>
</g>
<g>
	<g>
		<g>
			<path class="st18" d="M168.7,264.3c3.2,0,3.2-5,0-5C165.5,259.3,165.5,264.3,168.7,264.3L168.7,264.3z"/>
		</g>
	</g>
	<g>
		<g>
			<path class="st16" d="M245.4,265.2V255c0-0.6-0.5-1-1-1h-3.9c-0.3,0-0.5,0.1-0.7,0.3l0,0c-0.4,0.4-1.1,0.4-1.5,0l0,0
				c-0.2-0.2-0.5-0.3-0.7-0.3h-18.3h-51.9H149c-0.3,0-0.5,0.1-0.7,0.3l0,0c-0.4,0.4-1.1,0.4-1.5,0l0,0c-0.2-0.2-0.5-0.3-0.7-0.3
				h-3.9c-0.6,0-1,0.5-1,1v10.1c0,0.6,0.5,1,1,1h3.9c0.3,0,0.5-0.1,0.7-0.3l0,0c0.4-0.4,1.1-0.4,1.5,0l0,0c0.2,0.2,0.5,0.3,0.7,0.3
				h18.3h51.9h18.3c0.3,0,0.5-0.1,0.7-0.3l0,0c0.4-0.4,1.1-0.4,1.5,0l0,0c0.2,0.2,0.5,0.3,0.7,0.3h3.9
				C244.9,266.2,245.4,265.8,245.4,265.2z"/>
			<line class="st16" x1="238.8" y1="255.3" x2="238.8" y2="265.2"/>
			<line class="st16" x1="147.6" y1="264.9" x2="147.6" y2="255"/>
		</g>
	</g>
	<rect x="153.7" y="258.1" class="st16" width="48.4" height="3.2"/>
</g>
<g>
	<path class="st4" d="M216.2,181.9c-2.4,1.6-7.2,4.8-3.8,13.4c3,7.5-1,10.4-1.2,10.7"/>
	<path class="st4" d="M217.2,187.5c-1.2,1.8-1.9,3.7-0.3,8c1.8,4.8,0.5,7,0.5,7"/>
	<path class="st4" d="M207.7,194c0.8,1.8,2.8,6.5,0,8.4"/>
	<g>
		<path class="st4" d="M232.2,243.5v3c0,1.6-1.3,2.9-2.9,2.9h-33.1c-1.6,0-2.9-1.3-2.9-2.9v-36h39v11.6"/>
		<path class="st4" d="M225.6,254h-25.7c-1.2,0-2.2-1-2.2-2.2v-2.3h30.1v2.3C227.8,253,226.8,254,225.6,254z"/>
		<line class="st4" x1="232.2" y1="226.3" x2="232.2" y2="238.9"/>
		<line class="st4" x1="193.2" y1="214.6" x2="232.2" y2="214.6"/>
		<path class="st19" d="M229.6,222.1h6.5c5.8,0,10.5,4.7,10.5,10.5s-4.7,10.5-10.5,10.5h-6.5"/>
		<path class="st19" d="M229.6,226.3h6.2c3.5,0,6.3,2.8,6.3,6.3s-2.8,6.3-6.3,6.3h-6.3"/>
	</g>
</g>
<g>
	<g>
		
			<rect x="184.9" y="252" transform="matrix(4.488416e-11 -1 1 4.488416e-11 -117.2317 509.8784)" class="st13" width="22.8" height="123.1"/>
		
			<rect x="133.9" y="311.2" transform="matrix(4.491525e-11 -1 1 4.491525e-11 -167.3201 459.79)" class="st13" width="24.7" height="4.6"/>
		
			<rect x="236.7" y="311.2" transform="matrix(4.495255e-11 -1 1 4.495255e-11 -64.5271 562.5831)" class="st13" width="24.7" height="4.6"/>
	</g>
	<polyline class="st13" points="191.1,318 185,313.4 191.1,308.9 	"/>
	<polyline class="st13" points="203.7,308.9 209.8,313.4 203.7,318 	"/>
	<line class="st13" x1="194" y1="320.1" x2="200.1" y2="307"/>
</g>
<line class="st3" x1="861.3" y1="224" x2="999.4" y2="224"/>
<circle class="st5" cx="868.1" cy="230.6" r="2.1"/>
<circle class="st5" cx="868.1" cy="217.3" r="2.1"/>
<circle class="st5" cx="1043.8" cy="230.6" r="2.1"/>
<circle class="st5" cx="1043.8" cy="217.3" r="2.1"/>
<circle class="st7" cx="999.2" cy="264.4" r="5"/>
<circle class="st7" cx="999.2" cy="274.5" r="5"/>
<circle class="st7" cx="999.2" cy="284.6" r="5"/>
<line class="st3" x1="977.1" y1="241.5" x2="1037" y2="241.5"/>
<path class="st2" d="M986.9,237.6c0,16.2-13.1,29.3-29.3,29.3c-16.2,0-29.3-13.1-29.3-29.3"/>
<circle class="st5" cx="957.5" cy="261" r="2.1"/>
<circle class="st2" cx="957.7" cy="237.5" r="17.5"/>
<path class="st2" d="M961.9,234.7c0-2.4-2-4.4-4.4-4.4c-2.4,0-4.4,2-4.4,4.4c0,1.6,0.8,3,2.1,3.7v6.3h4.6v-6.3
	C961.1,237.7,961.9,236.3,961.9,234.7z"/>
<line class="st3" x1="875.5" y1="241.5" x2="928.2" y2="241.5"/>
<circle class="st7" cx="999.2" cy="234.2" r="5"/>
<circle class="st7" cx="999.2" cy="244.3" r="5"/>
<circle class="st7" cx="999.2" cy="254.4" r="5"/>
<path class="st7" d="M1004.2,224.3c0,2.7-2.2,5-5,5c-2.7,0-5-2.2-5-5"/>
<line class="st2" x1="989.8" y1="224" x2="1008.2" y2="224"/>
<line class="st2" x1="861.3" y1="206.6" x2="1050" y2="206.6"/>
<line class="st13" x1="1037.4" y1="302" x2="1044.6" y2="302"/>
<line class="st13" x1="1011.5" y1="309.3" x2="1004.4" y2="309.3"/>
<g>
	<polygon class="st13" points="1004.4,309.3 1017.5,286.5 1035.5,286.4 1044.6,302 1031.4,324.9 1013.4,324.9 	"/>
	<polygon class="st13" points="1016.9,318.7 1011.5,309.3 1021.1,292.6 1032,292.6 1037.4,302 1027.8,318.7 	"/>
	<line class="st13" x1="1035.1" y1="287.1" x2="1032" y2="292.6"/>
	<line class="st13" x1="1027.8" y1="318.7" x2="1031.4" y2="324.9"/>
	<line class="st13" x1="1016.9" y1="318.7" x2="1013.4" y2="324.9"/>
	<line class="st13" x1="1017.5" y1="286.5" x2="1021.1" y2="292.6"/>
</g>
<path class="st13" d="M1046,276.5c4.4,0,8,3.6,8,8c0-4.4,3.6-8,8-8c-4.4,0-8-3.6-8-8C1054,273,1050.4,276.5,1046,276.5z"/>
<path class="st4" d="M1029.8,258.6c2.5,0,4.6,2,4.6,4.6c0-2.5,2-4.6,4.6-4.6c-2.5,0-4.6-2-4.6-4.6
	C1034.4,256.6,1032.4,258.6,1029.8,258.6z"/>
<g>
	<line class="st13" x1="1060" y1="250.9" x2="1064" y2="254.9"/>
	<line class="st13" x1="1064" y1="250.9" x2="1060" y2="254.9"/>
</g>
<g>
	<path class="st13" d="M234.6,190.2l9.9,9.9c0,0,10.3-10.2,10.3-10.2c2.6-2.6,2.3-6.9-0.8-9.2c-2.4-1.7-5.8-1.2-7.9,0.9l-1.5,1.5
		c0,0-0.1,0-0.1,0l-1.7-1.7c-2.6-2.6-6.9-2.3-9.2,0.8C232,184.7,232.5,188.1,234.6,190.2z"/>
	<path class="st2" d="M251.3,185.3c2.5,0,4.6,2.1,4.6,4.6c0-2.5,2.1-4.6,4.6-4.6c-2.5,0-4.6-2.1-4.6-4.6
		C255.8,183.3,253.8,185.3,251.3,185.3z"/>
	<path class="st2" d="M230.3,191.8c3.2,0,5.8,2.6,5.8,5.8c0-3.2,2.6-5.8,5.8-5.8c-3.2,0-5.8-2.6-5.8-5.8
		C236.1,189.2,233.5,191.8,230.3,191.8z"/>
</g>
<path class="st7" d="M849.8,254.2c3.9,0,7.1,3.2,7.1,7.1c0-3.9,3.2-7.1,7.1-7.1c-3.9,0-7.1-3.2-7.1-7.1
	C856.9,251.1,853.7,254.2,849.8,254.2z"/>
</svg>
